<svg width="32" height="32" viewBox="0 0 32 32" fill="none" xmlns="http://www.w3.org/2000/svg">
<path d="M19.2408 25.0935C18.9875 25.0935 18.7341 25.0002 18.5341 24.8002C18.1475 24.4135 18.1475 23.7735 18.5341 23.3868L25.9208 16.0002L18.5341 8.61349C18.1475 8.22682 18.1475 7.58682 18.5341 7.20016C18.9208 6.81349 19.5608 6.81349 19.9475 7.20016L28.0408 15.2935C28.4275 15.6802 28.4275 16.3202 28.0408 16.7068L19.9475 24.8002C19.7475 25.0002 19.4941 25.0935 19.2408 25.0935Z" fill="black"/>
<path d="M27.106 17H4.66602C4.11935 17 3.66602 16.5467 3.66602 16C3.66602 15.4533 4.11935 15 4.66602 15H27.106C27.6527 15 28.106 15.4533 28.106 16C28.106 16.5467 27.6527 17 27.106 17Z" fill="black"/>
</svg>
