<svg width="32" height="32" viewBox="0 0 32 32" fill="none" xmlns="http://www.w3.org/2000/svg">
<path d="M12.7592 6.90651C13.0125 6.90651 13.2659 6.99984 13.4659 7.19984C13.8525 7.58651 13.8525 8.22651 13.4659 8.61318L6.07919 15.9998L13.4659 23.3865C13.8525 23.7732 13.8525 24.4132 13.4659 24.7998C13.0792 25.1865 12.4392 25.1865 12.0525 24.7998L3.95919 16.7065C3.57252 16.3198 3.57252 15.6798 3.95919 15.2932L12.0525 7.19984C12.2525 6.99984 12.5059 6.90651 12.7592 6.90651Z" fill="black"/>
<path d="M4.89398 15H27.334C27.8807 15 28.334 15.4533 28.334 16C28.334 16.5467 27.8807 17 27.334 17H4.89398C4.34732 17 3.89398 16.5467 3.89398 16C3.89398 15.4533 4.34732 15 4.89398 15Z" fill="black"/>
</svg>
