<svg width="24" height="25" viewBox="0 0 24 25" fill="none" xmlns="http://www.w3.org/2000/svg">
<path opacity="0.58" d="M24 0.354492H0V24.3545H24V0.354492Z" fill="white"/>
<path d="M9 19.1045H3C2.04 19.1045 1.25 18.3145 1.25 17.3545V7.35449C1.25 6.39449 2.04 5.60449 3 5.60449H8C10.07 5.60449 11.75 7.28449 11.75 9.35449C11.75 10.3845 11.33 11.3145 10.66 11.9945C11.9 12.6045 12.75 13.8845 12.75 15.3545C12.75 17.4245 11.07 19.1045 9 19.1045ZM2.75 13.1045V17.3545C2.75 17.4945 2.86 17.6045 3 17.6045H9C10.24 17.6045 11.25 16.5945 11.25 15.3545C11.25 14.1145 10.24 13.1045 9 13.1045H2.75ZM2.75 11.6045H8C9.24 11.6045 10.25 10.5945 10.25 9.35449C10.25 8.11449 9.24 7.10449 8 7.10449H3C2.86 7.10449 2.75 7.21449 2.75 7.35449V11.6045Z" fill="black"/>
<path opacity="0.4" d="M19.67 19.1045H18C15.38 19.1045 13.25 16.9745 13.25 14.3545C13.25 11.7345 15.38 9.60449 18 9.60449C20.62 9.60449 22.75 11.7345 22.75 14.3545C22.75 14.7645 22.41 15.1045 22 15.1045H14.84C15.18 16.5345 16.47 17.6045 18 17.6045H19.67C20.08 17.6045 20.42 17.9445 20.42 18.3545C20.42 18.7645 20.08 19.1045 19.67 19.1045ZM14.84 13.6045H21.17C20.83 12.1745 19.54 11.1045 18.01 11.1045C16.48 11.1045 15.18 12.1745 14.84 13.6045Z" fill="black"/>
<path d="M19.5 8.60449H16.5C16.09 8.60449 15.75 8.26449 15.75 7.85449C15.75 7.44449 16.09 7.10449 16.5 7.10449H19.5C19.91 7.10449 20.25 7.44449 20.25 7.85449C20.25 8.26449 19.91 8.60449 19.5 8.60449Z" fill="black"/>
</svg>
