<svg width="26" height="26" viewBox="0 0 26 26" fill="none" xmlns="http://www.w3.org/2000/svg">
<path opacity="0.4" d="M23.7542 17.8461V21.0769C23.7542 22.6923 22.6745 23.7692 21.0549 23.7692H6.47852C6.92121 23.7692 7.37469 23.7046 7.79579 23.5646C7.91456 23.5215 8.03332 23.4785 8.15209 23.4246C8.52999 23.2738 8.89712 23.0585 9.22104 22.7785C9.31822 22.7031 9.42619 22.6061 9.52337 22.5092L9.56653 22.4661L16.9087 15.1538H21.0549C22.6745 15.1538 23.7542 16.2308 23.7542 17.8461Z" fill="#003DA5"/>
<path opacity="0.6" d="M19.8347 12.2354L16.9086 15.1538L9.56641 22.4661C10.3222 21.6908 10.7973 20.6246 10.7973 19.4615V9.05845L13.7234 6.13999C14.8679 4.99845 16.4011 4.99845 17.5456 6.13999L19.8347 8.42307C20.9792 9.56461 20.9792 11.0938 19.8347 12.2354Z" fill="#003DA5"/>
<path d="M8.09868 2.23076H4.85949C3.23989 2.23076 2.16016 3.30768 2.16016 4.92307V19.4615C2.16016 19.7523 2.19253 20.0431 2.24652 20.3231C2.27891 20.4631 2.31131 20.6031 2.3545 20.7431C2.40849 20.9046 2.46248 21.0661 2.52726 21.2169C2.53806 21.2277 2.53807 21.2385 2.53807 21.2385C2.54887 21.2385 2.54887 21.2385 2.53807 21.2492C2.68923 21.5508 2.86198 21.8415 3.06713 22.1108C3.1859 22.2508 3.30469 22.38 3.42346 22.5092C3.54223 22.6385 3.67178 22.7461 3.81214 22.8538L3.82295 22.8646C4.09289 23.0692 4.3844 23.2415 4.68673 23.3923C4.69752 23.3815 4.69753 23.3815 4.69753 23.3923C4.85949 23.4677 5.02144 23.5215 5.1942 23.5754C5.33457 23.6185 5.47495 23.6508 5.61531 23.6831C5.89604 23.7369 6.18756 23.7692 6.47908 23.7692C6.92177 23.7692 7.37526 23.7046 7.79636 23.5646C7.91513 23.5215 8.03389 23.4785 8.15266 23.4246C8.53056 23.2738 8.89769 23.0585 9.22161 22.7785C9.31879 22.7031 9.42676 22.6061 9.52394 22.5092L9.5671 22.4661C10.3229 21.6908 10.798 20.6246 10.798 19.4615V4.92307C10.798 3.30768 9.71828 2.23076 8.09868 2.23076ZM6.47908 21.0769C5.58291 21.0769 4.85949 20.3554 4.85949 19.4615C4.85949 18.5677 5.58291 17.8461 6.47908 17.8461C7.37526 17.8461 8.09868 18.5677 8.09868 19.4615C8.09868 20.3554 7.37526 21.0769 6.47908 21.0769Z" fill="#003DA5"/>
</svg>
