<svg width="45" height="46" viewBox="0 0 45 46" fill="none" xmlns="http://www.w3.org/2000/svg">
<path d="M35.0441 21.9737C33.9754 21.6925 32.7191 21.5425 31.2191 21.5425C29.1379 21.5425 28.3691 22.0487 27.3004 22.855C27.2441 22.8925 27.1879 22.9487 27.1316 23.005L25.3504 24.8987C23.8691 26.4925 21.1504 26.4925 19.6504 24.8987L17.8691 23.0237C17.8129 22.9487 17.7566 22.8925 17.7004 22.855C16.6129 22.0487 15.8441 21.5425 13.7816 21.5425C12.2816 21.5425 11.0254 21.6737 9.95664 21.9737C5.49414 23.1737 5.49414 26.7175 5.49414 29.83V31.5737C5.49414 36.28 5.49414 41.605 15.5254 41.605H29.4754C36.1316 41.605 39.5066 38.23 39.5066 31.5737V29.83C39.5066 26.7175 39.5066 23.1737 35.0441 21.9737Z" fill="black"/>
<path opacity="0.4" d="M27.7305 4.10449H17.268C8.98047 4.10449 8.98047 8.51074 8.98047 12.392V23.2482C8.98047 23.6607 9.16797 24.0357 9.48672 24.2795C9.80547 24.5232 10.2367 24.617 10.6305 24.5045C11.4742 24.2795 12.5242 24.167 13.7805 24.167C15.0367 24.167 15.2992 24.317 16.0492 24.8795L17.7555 26.6795C18.9742 27.992 20.718 28.742 22.518 28.742C24.318 28.742 26.043 27.992 27.2805 26.6795L28.9867 24.8795C29.7367 24.317 29.9992 24.167 31.2555 24.167C32.5117 24.167 33.5617 24.2795 34.4055 24.5045C34.7992 24.617 35.2117 24.5232 35.5492 24.2795C35.868 24.0357 36.0555 23.642 36.0555 23.2482V12.392C36.018 8.51074 36.018 4.10449 27.7305 4.10449Z" fill="black"/>
<path d="M25.4063 18.9355H19.5937C18.8625 18.9355 18.2812 18.3543 18.2812 17.623C18.2812 16.8918 18.8625 16.3105 19.5937 16.3105H25.4063C26.1375 16.3105 26.7188 16.8918 26.7188 17.623C26.7188 18.3355 26.1188 18.9355 25.4063 18.9355Z" fill="black"/>
<path d="M26.8684 13.7041H18.1309C17.3996 13.7041 16.8184 13.1229 16.8184 12.3916C16.8184 11.6604 17.3996 11.0791 18.1309 11.0791H26.8496C27.5809 11.0791 28.1621 11.6604 28.1621 12.3916C28.1621 13.1041 27.5809 13.7041 26.8684 13.7041Z" fill="black"/>
</svg>
