<svg width="24" height="25" viewBox="0 0 24 25" fill="none" xmlns="http://www.w3.org/2000/svg">
<path opacity="0.58" d="M24 0.354492H0V24.3545H24V0.354492Z" fill="white"/>
<path fill-rule="evenodd" clip-rule="evenodd" d="M15.8807 21.2743C15.9107 21.4343 15.8207 21.6043 15.6707 21.6643C14.5307 22.1143 13.3007 22.3543 12.0107 22.3543C9.81071 22.3543 7.76071 21.6443 6.11071 20.4243C5.97071 20.3243 5.93071 20.1243 6.02071 19.9743C6.57071 18.9943 8.72071 15.8443 13.4707 14.0843C13.6507 14.0143 13.8507 14.1043 13.9107 14.2843C15.1107 17.4743 15.6707 20.1743 15.8807 21.2743Z" fill="black"/>
<path fill-rule="evenodd" clip-rule="evenodd" d="M21.8196 14.2445C21.3596 16.7045 19.9796 18.8445 18.0496 20.3045C17.8396 20.4645 17.5396 20.3445 17.4896 20.0945C17.2796 19.0145 16.7696 16.6845 15.7896 13.9145C15.7196 13.7045 15.8596 13.4745 16.0796 13.4445C18.5696 13.1445 20.7496 13.6245 21.5696 13.8445C21.7396 13.9045 21.8496 14.0745 21.8196 14.2445Z" fill="black"/>
<path opacity="0.4" fill-rule="evenodd" clip-rule="evenodd" d="M21.5902 12.1746C20.5702 11.9946 17.9702 11.6146 15.3102 11.9046C15.1502 11.9246 15.0102 11.8346 14.9402 11.6846C14.9002 11.5946 14.8702 11.5046 14.8302 11.4146C14.6702 11.0446 14.5002 10.6646 14.3302 10.2946C14.2402 10.1146 14.3302 9.89464 14.5102 9.81464C17.3102 8.60464 18.8702 7.04464 19.4802 6.34464C19.6302 6.17464 19.8902 6.18464 20.0302 6.36464C21.1802 7.89464 21.8902 9.76464 22.0002 11.7846C22.0102 12.0346 21.8102 12.2146 21.5902 12.1746Z" fill="black"/>
<path fill-rule="evenodd" clip-rule="evenodd" d="M18.4397 5.14449C17.9197 5.77449 16.4597 7.27449 13.6897 8.37449C13.5297 8.44449 13.3397 8.37449 13.2497 8.21449C11.9697 5.89449 10.6097 3.94449 9.97967 3.06449C9.82967 2.84449 9.94967 2.55449 10.2097 2.50449C10.7897 2.40449 11.3897 2.35449 12.0097 2.35449C14.4297 2.35449 16.6597 3.21449 18.3897 4.65449C18.5397 4.77449 18.5597 4.99449 18.4397 5.14449Z" fill="black"/>
<path fill-rule="evenodd" clip-rule="evenodd" d="M11.0207 9.19441C7.23074 10.1444 3.88074 10.2744 2.66074 10.2944C2.43074 10.2944 2.26074 10.0744 2.32074 9.85441C3.04074 7.05441 4.96074 4.71441 7.49074 3.42441C7.64074 3.34441 7.83074 3.39441 7.93074 3.53441C8.45074 4.25441 9.86074 6.28441 11.2407 8.67441C11.3507 8.87441 11.2507 9.13441 11.0207 9.19441Z" fill="black"/>
<path opacity="0.4" fill-rule="evenodd" clip-rule="evenodd" d="M12.92 11.9543C13.01 12.1443 12.9 12.3743 12.7 12.4443C8.27 13.8743 5.62 17.4243 4.82 18.6443C4.69 18.8443 4.41 18.8543 4.26 18.6743C2.85 16.9543 2 14.9843 2 12.5843V12.4043C2 12.2043 2.16 12.0443 2.36 12.0543C3.62 12.1043 7.73 11.9343 12 10.7043C12.16 10.6543 12.34 10.7343 12.41 10.8843C12.59 11.2443 12.76 11.5943 12.92 11.9543Z" fill="black"/>
</svg>
