<svg width="24" height="25" viewBox="0 0 24 25" fill="none" xmlns="http://www.w3.org/2000/svg">
<path opacity="0.58" d="M24 0.354492H0V24.3545H24V0.354492Z" fill="white"/>
<path d="M12.2 6.22449C12.13 6.22449 12.06 6.2245 12 6.2345V2.36449C12.07 2.35449 12.13 2.35449 12.2 2.35449C14.46 2.35449 16.4 3.04449 17.99 4.21449C18.49 4.57449 18.53 5.3045 18.09 5.7345L16.7 7.0945C16.36 7.4245 15.84 7.48449 15.45 7.21449C14.7 6.69449 13.63 6.22449 12.2 6.22449Z" fill="black"/>
<path d="M21.8 12.5742C21.8 15.6242 20.71 18.1842 18.82 19.9342C17.17 21.4642 14.9 22.3542 12.2 22.3542C12.13 22.3542 12.07 22.3542 12 22.3442V18.4742C12.07 18.4842 12.13 18.4842 12.2 18.4842C13.69 18.4842 14.82 18.0742 15.67 17.4842C17 16.5542 17.6 15.1642 17.71 14.2442H13.2C12.65 14.2442 12.2 13.7942 12.2 13.2442V11.5342C12.2 10.9842 12.65 10.5342 13.2 10.5342H20.75C21.26 10.5342 21.69 10.9142 21.74 11.4242C21.78 11.7742 21.8 12.1442 21.8 12.5742Z" fill="black"/>
<path opacity="0.4" d="M6.49922 10.3743C6.29922 10.9943 6.17922 11.6643 6.17922 12.3543C6.17922 13.0443 6.29922 13.7043 6.50922 14.3343C7.28922 16.6843 9.44922 18.3943 11.9992 18.4743V22.3443C8.17922 22.2743 4.88922 20.0543 3.27922 16.8443H3.26922C2.58922 15.4843 2.19922 13.9643 2.19922 12.3543C2.19922 10.7443 2.58922 9.22426 3.26922 7.86426C4.87922 4.65426 8.16922 2.43426 11.9992 2.36426V6.23427C9.63922 6.30427 7.62922 7.76426 6.70922 9.83426C6.62922 10.0143 6.55922 10.1943 6.49922 10.3743Z" fill="black"/>
</svg>
