<svg width="26" height="26" viewBox="0 0 26 26" fill="none" xmlns="http://www.w3.org/2000/svg">
<path d="M21.644 11.6L18.617 13.5062L12.498 7.41077L14.4007 4.39539C15.2872 3.00615 17.0602 2.94154 18.3683 4.23385L21.8062 7.65846C23.0278 8.87539 22.9521 10.7708 21.644 11.6Z" fill="#003DA5"/>
<path opacity="0.4" d="M15.9026 21.5615L6.48634 22.6708C5.83769 22.7461 5.2539 22.6492 4.76742 22.4123C4.23769 22.1538 3.82688 21.7446 3.56742 21.2169C3.32958 20.7323 3.24309 20.1508 3.30796 19.5154L4.43228 10.1246C4.70255 7.77692 5.57823 7.0123 8.06472 7.1523L12.5188 7.42153L18.6377 13.5169L18.8971 17.9538C19.1242 20.4308 18.2701 21.2923 15.9026 21.5615Z" fill="#003DA5"/>
<path d="M8.62691 18.5461L4.75664 22.4015C4.22691 22.1431 3.8161 21.7338 3.55664 21.2061L7.43772 17.34C7.77286 17.0169 8.3134 17.0169 8.63772 17.34C8.97286 17.6846 8.97286 18.2123 8.62691 18.5461Z" fill="#003DA5"/>
</svg>
