<svg width="22" height="22" viewBox="0 0 22 22" fill="none" xmlns="http://www.w3.org/2000/svg">
<path fill-rule="evenodd" clip-rule="evenodd" d="M0.990471 3.31153C0.5 4.27414 0.5 5.53426 0.5 8.05449V14.6545C0.5 17.1747 0.5 18.4348 0.990471 19.3974C1.4219 20.2442 2.11031 20.9326 2.95704 21.364C3.91965 21.8545 5.17976 21.8545 7.7 21.8545H14.3C16.8202 21.8545 18.0804 21.8545 19.043 21.364C19.8897 20.9326 20.5781 20.2442 21.0095 19.3974C21.5 18.4348 21.5 17.1747 21.5 14.6545V8.05449C21.5 5.53426 21.5 4.27414 21.0095 3.31153C20.5781 2.46481 19.8897 1.77639 19.043 1.34496C18.0804 0.854492 16.8202 0.854492 14.3 0.854492H7.7C5.17976 0.854492 3.91965 0.854492 2.95704 1.34496C2.11031 1.77639 1.4219 2.46481 0.990471 3.31153ZM3.99047 6.31153C3.5 7.27414 3.5 8.53426 3.5 11.0545V11.6545C3.5 14.1747 3.5 15.4348 3.99047 16.3974C4.4219 17.2442 5.11031 17.9326 5.95704 18.364C6.91965 18.8545 8.17976 18.8545 10.7 18.8545H11.3C13.8202 18.8545 15.0804 18.8545 16.043 18.364C16.8897 17.9326 17.5781 17.2442 18.0095 16.3974C18.5 15.4348 18.5 14.1747 18.5 11.6545V11.0545C18.5 8.53426 18.5 7.27414 18.0095 6.31153C17.5781 5.46481 16.8897 4.77639 16.043 4.34496C15.0804 3.85449 13.8202 3.85449 11.3 3.85449H10.7C8.17976 3.85449 6.91965 3.85449 5.95704 4.34496C5.11031 4.77639 4.4219 5.46481 3.99047 6.31153ZM11.3 5.35449H10.7C9.41513 5.35449 8.54169 5.35566 7.86656 5.41082C7.20893 5.46455 6.87263 5.56194 6.63803 5.68147C6.07354 5.96909 5.6146 6.42803 5.32698 6.99252C5.20745 7.22712 5.11006 7.56343 5.05633 8.22105C5.00117 8.89618 5 9.76962 5 11.0545V11.6545C5 12.9394 5.00117 13.8128 5.05633 14.4879C5.11006 15.1456 5.20745 15.4819 5.32698 15.7165C5.6146 16.281 6.07354 16.7399 6.63803 17.0275C6.87263 17.147 7.20893 17.2444 7.86656 17.2982C8.54169 17.3533 9.41513 17.3545 10.7 17.3545H11.3C12.5849 17.3545 13.4583 17.3533 14.1334 17.2982C14.7911 17.2444 15.1274 17.147 15.362 17.0275C15.9265 16.7399 16.3854 16.281 16.673 15.7165C16.7926 15.4819 16.8899 15.1456 16.9437 14.4879C16.9988 13.8128 17 12.9394 17 11.6545V11.0545C17 9.76962 16.9988 8.89618 16.9437 8.22105C16.8899 7.56343 16.7926 7.22712 16.673 6.99252C16.3854 6.42803 15.9265 5.96909 15.362 5.68147C15.1274 5.56194 14.7911 5.46455 14.1334 5.41082C13.4583 5.35566 12.5849 5.35449 11.3 5.35449ZM16.25 7.22949C16.25 7.85081 15.7463 8.35449 15.125 8.35449C14.5037 8.35449 14 7.85081 14 7.22949C14 6.60817 14.5037 6.10449 15.125 6.10449C15.7463 6.10449 16.25 6.60817 16.25 7.22949ZM11 15.1045C13.0711 15.1045 14.75 13.4256 14.75 11.3545C14.75 9.28342 13.0711 7.60449 11 7.60449C8.92893 7.60449 7.25 9.28342 7.25 11.3545C7.25 13.4256 8.92893 15.1045 11 15.1045ZM11 13.6045C12.2426 13.6045 13.25 12.5971 13.25 11.3545C13.25 10.1119 12.2426 9.10449 11 9.10449C9.75736 9.10449 8.75 10.1119 8.75 11.3545C8.75 12.5971 9.75736 13.6045 11 13.6045Z" fill="black"/>
</svg>
