<svg width="1240" height="525" viewBox="0 0 1240 525" fill="none" xmlns="http://www.w3.org/2000/svg">
<g opacity="0.5" clip-path="url(#clip0_141_5853)">
<g opacity="0.08">
<path d="M633.449 -27.9102C633.449 -23.5257 635.191 -19.3208 638.291 -16.2205C641.391 -13.1203 645.596 -11.3785 649.98 -11.3785C654.365 -11.3785 658.57 -13.1203 661.67 -16.2205C664.77 -19.3208 666.512 -23.5257 666.512 -27.9102H633.449ZM253.222 -26.9844C222.15 -26.912 191.418 -20.5226 162.893 -8.20447C160.834 -7.42855 158.951 -6.24959 157.354 -4.73667C155.757 -3.22374 154.478 -1.40729 153.592 0.606268C152.706 2.61982 152.231 4.78997 152.194 6.98954C152.158 9.18912 152.561 11.3739 153.379 13.4158C154.198 15.4577 155.415 17.3158 156.961 18.881C158.507 20.4463 160.35 21.6872 162.381 22.5312C164.413 23.3753 166.592 23.8053 168.792 23.7962C170.992 23.7871 173.168 23.339 175.192 22.4782C199.813 11.7686 226.372 6.23172 253.222 6.2111C280.069 6.2111 306.652 11.7657 331.251 22.4782C334.454 23.8893 338.022 24.2474 341.442 23.5008C344.861 22.7543 347.956 20.9416 350.279 18.324C352.603 15.7064 354.036 12.4188 354.371 8.93482C354.707 5.45084 353.928 1.95024 352.147 -1.06281C350.206 -4.37645 347.164 -6.90385 343.55 -8.20447C315.025 -20.5226 284.293 -26.912 253.222 -26.9844ZM600.518 -22.62C597.816 -22.4231 595.204 -21.5652 592.912 -20.1219C590.619 -18.6786 588.717 -16.694 587.371 -14.3427C586.026 -11.9915 585.279 -9.34563 585.196 -6.63793C585.113 -3.93022 585.697 -1.24364 586.896 1.18549C588.705 5.12427 590.874 8.88743 593.376 12.427C594.597 14.2561 596.171 15.8232 598.006 17.0364C599.84 18.2496 601.898 19.0845 604.06 19.4924C606.221 19.9002 608.442 19.8727 610.592 19.4114C612.742 18.9502 614.779 18.0645 616.583 16.8062C618.387 15.5479 619.922 13.9423 621.097 12.0835C622.273 10.2247 623.065 8.15001 623.429 5.98094C623.793 3.81188 623.72 1.59205 623.215 -0.548525C622.71 -2.6891 621.783 -4.70739 620.488 -6.48518C619.072 -8.48985 617.833 -10.6139 616.785 -12.8333C615.415 -15.9159 613.135 -18.5057 610.251 -20.2551C607.367 -22.0045 604.017 -22.8297 600.65 -22.62H600.518ZM438.508 -20.6362C436.22 -20.4649 433.992 -19.8192 431.968 -18.7401C429.943 -17.661 428.164 -16.1721 426.746 -14.3683C425.328 -12.5645 424.301 -10.4852 423.73 -8.26282C423.16 -6.0404 423.058 -3.7235 423.431 -1.45957C427.092 29.4371 436.991 59.2681 452.527 86.2241C468.055 113.143 488.887 136.629 513.76 155.26C516.182 157.278 519.131 158.561 522.258 158.958C525.386 159.355 528.562 158.85 531.411 157.501C534.261 156.153 536.666 154.018 538.342 151.348C540.018 148.678 540.896 145.584 540.872 142.432C540.872 137.009 538.227 132.116 534.127 129.206C512.564 113.205 494.514 92.9494 481.094 69.6925C467.664 46.4088 459.156 20.6162 456.098 -6.08842C455.598 -10.3096 453.492 -14.1763 450.217 -16.8854C446.941 -19.5944 442.748 -20.9377 438.508 -20.6362ZM548.542 -10.8495C545.961 -10.6859 543.453 -9.91862 541.222 -8.60937C538.99 -7.30012 537.098 -5.48546 535.695 -3.31137C534.293 -1.13727 533.421 1.33558 533.148 3.90827C532.876 6.48096 533.211 9.08167 534.127 11.5012C539.294 26.6769 547.381 40.6946 557.932 52.7641C560.094 55.4243 563.03 57.3467 566.332 58.2652C569.635 59.1836 573.141 59.0527 576.366 57.8906C579.591 56.7285 582.375 54.5926 584.333 51.7786C586.29 48.9646 587.325 45.6117 587.293 42.1839C587.293 38.0841 585.706 34.2487 583.193 31.3392C575.181 22.335 569.064 11.8102 565.206 0.391972C564.05 -3.05264 561.791 -6.0204 558.779 -8.0524C555.767 -10.0844 552.169 -11.0674 548.542 -10.8495ZM493.922 -9.92376C491.476 -9.75731 489.097 -9.04886 486.959 -7.84972C484.82 -6.65059 482.975 -4.99079 481.557 -2.99058C480.14 -0.990364 479.184 1.30018 478.761 3.71513C478.338 6.13008 478.457 8.60897 479.11 10.9722C483.034 28.1043 489.497 44.5533 498.286 59.7735C507.07 74.9924 518.08 88.8115 530.953 100.772C533.264 103.063 536.201 104.622 539.394 105.251C542.588 105.88 545.896 105.553 548.904 104.31C551.912 103.068 554.486 100.965 556.304 98.2647C558.122 95.5648 559.103 92.3884 559.123 89.1337C559.123 84.2403 557.139 79.876 553.833 76.8342C543.193 67.0654 534.096 55.7391 526.853 43.2419C519.646 30.7074 514.384 17.1513 511.247 3.03703C510.402 -0.820835 508.204 -4.24867 505.05 -6.62604C501.896 -9.00341 497.996 -10.1732 494.054 -9.92376H493.922ZM921.099 14.4108C917.131 14.4108 913.296 15.8656 910.519 18.2461C885.595 36.8606 864.717 60.3484 849.153 87.2822C833.617 114.238 823.719 144.069 820.058 174.966C819.461 179.315 820.617 183.723 823.271 187.22C825.925 190.718 829.859 193.017 834.209 193.614C838.558 194.21 842.966 193.054 846.463 190.4C849.961 187.746 852.26 183.812 852.856 179.462C855.892 152.813 864.353 127.068 877.72 103.814C891.176 80.542 909.273 60.2848 930.886 44.2999C933.717 42.2356 935.82 39.3249 936.89 35.9879C937.959 32.6509 937.941 29.0604 936.837 25.7345C935.733 22.4086 933.601 19.5195 930.749 17.4842C927.896 15.4488 924.471 14.3726 920.967 14.4108H921.099ZM253.222 25.9168C235.632 25.9168 218.175 28.6941 201.379 33.852C199.294 34.4598 197.35 35.4722 195.658 36.8314C193.965 38.1906 192.556 39.8698 191.512 41.7734C190.468 43.6769 189.81 45.7674 189.574 47.9255C189.338 50.0836 189.529 52.267 190.137 54.3512C190.745 56.4353 191.757 58.3793 193.116 60.0721C194.476 61.765 196.155 63.1736 198.058 64.2174C199.962 65.2613 202.052 65.92 204.211 66.156C206.369 66.392 208.552 66.2005 210.636 65.5927C224.415 61.2453 238.774 59.0157 253.222 58.98C267.77 58.98 282.053 61.3606 295.807 65.5927C300.016 66.8203 304.541 66.3256 308.385 64.2174C312.229 62.1092 315.079 58.5602 316.306 54.3512C317.534 50.1421 317.039 45.6177 314.931 41.7734C312.823 37.929 309.274 35.0796 305.065 33.852C288.277 28.631 270.802 25.9562 253.222 25.9168ZM939.35 67.7087C934.721 67.7087 930.621 69.5602 927.712 72.6021C914.795 84.5558 903.74 98.3749 894.913 113.6C886.17 128.828 879.751 145.277 875.869 162.402C875.161 164.562 874.907 166.845 875.122 169.108C875.336 171.371 876.016 173.565 877.117 175.554C878.218 177.542 879.717 179.283 881.521 180.666C883.325 182.049 885.395 183.045 887.601 183.592C889.807 184.139 892.103 184.225 894.344 183.845C896.585 183.465 898.724 182.626 900.626 181.383C902.529 180.139 904.154 178.516 905.401 176.615C906.648 174.715 907.49 172.577 907.874 170.337C911.056 156.217 916.363 142.661 923.612 130.132C930.844 117.588 939.941 106.217 950.591 96.4076C953.044 94.1514 954.758 91.2066 955.508 87.9593C956.257 84.712 956.008 81.3139 954.793 78.2108C953.577 75.1077 951.452 72.4444 948.696 70.5702C945.94 68.6961 942.682 67.6986 939.35 67.7087ZM253.222 78.9502C245.286 78.9502 237.219 79.7437 229.416 81.3308C226.029 81.855 222.889 83.4189 220.43 85.8059C217.971 88.193 216.315 91.2854 215.69 94.6551C215.066 98.0248 215.504 101.505 216.944 104.615C218.384 107.725 220.755 110.31 223.729 112.013C227.432 114.129 231.532 114.659 235.368 113.865C247.149 111.464 259.294 111.464 271.076 113.865C273.212 114.256 275.404 114.222 277.527 113.765C279.651 113.309 281.663 112.439 283.45 111.205C285.237 109.97 286.763 108.396 287.942 106.572C289.12 104.748 289.928 102.71 290.319 100.574C290.709 98.4373 290.676 96.2451 290.219 94.1219C289.763 91.9987 288.892 89.9863 287.658 88.1994C286.424 86.4126 284.85 84.8863 283.026 83.7078C281.202 82.5292 279.163 81.7215 277.027 81.3308C269.188 79.7639 261.215 78.9666 253.222 78.9502ZM967.52 114.526C962.23 114.526 957.733 116.775 954.691 120.61C944.143 132.681 936.056 146.699 930.886 161.873C930.003 163.946 929.553 166.178 929.565 168.431C929.576 170.685 930.048 172.912 930.951 174.976C931.854 177.041 933.17 178.899 934.818 180.436C936.465 181.973 938.41 183.157 940.532 183.916C942.654 184.674 944.908 184.991 947.157 184.846C949.406 184.702 951.601 184.099 953.608 183.075C955.616 182.051 957.392 180.628 958.829 178.892C960.266 177.156 961.334 175.145 961.965 172.982C965.774 161.57 971.846 151.044 979.819 142.035C981.932 139.656 983.313 136.719 983.797 133.575C984.281 130.431 983.848 127.214 982.55 124.31C981.251 121.406 979.143 118.938 976.477 117.203C973.811 115.467 970.701 114.538 967.52 114.526ZM253.222 131.851C251.106 131.851 248.857 131.984 246.741 132.248C244.555 132.407 242.421 133 240.466 133.991C238.51 134.983 236.771 136.353 235.35 138.023C233.93 139.693 232.855 141.628 232.19 143.717C231.524 145.807 231.281 148.007 231.473 150.191C231.666 152.375 232.292 154.499 233.314 156.439C234.335 158.379 235.732 160.096 237.424 161.491C239.116 162.886 241.068 163.93 243.167 164.563C245.266 165.197 247.47 165.406 249.651 165.179C252.07 164.949 254.506 164.949 256.925 165.179C259.096 165.361 261.281 165.114 263.357 164.452C265.432 163.79 267.357 162.725 269.021 161.319C270.685 159.913 272.056 158.193 273.055 156.257C274.055 154.321 274.663 152.207 274.845 150.036C275.027 147.865 274.78 145.68 274.118 143.604C273.456 141.529 272.391 139.604 270.985 137.94C269.579 136.276 267.859 134.905 265.923 133.906C263.987 132.906 261.873 132.298 259.702 132.116C257.546 131.939 255.385 131.851 253.222 131.851ZM1003.76 153.805C998.07 153.805 993.045 156.583 990.003 161.079C987.54 164.62 985.414 168.383 983.655 172.321C982.59 174.3 981.94 176.475 981.745 178.714C981.55 180.953 981.813 183.208 982.519 185.342C983.224 187.476 984.358 189.443 985.849 191.124C987.341 192.805 989.16 194.164 991.194 195.118C993.229 196.072 995.437 196.602 997.683 196.674C999.929 196.746 1002.17 196.36 1004.26 195.538C1006.35 194.717 1008.25 193.477 1009.85 191.896C1011.45 190.314 1012.7 188.424 1013.54 186.34C1014.56 184.101 1015.8 181.974 1017.25 179.991C1019.03 177.517 1020.09 174.599 1020.31 171.559C1020.54 168.519 1019.92 165.476 1018.52 162.766C1017.13 160.056 1015.01 157.785 1012.4 156.204C1009.8 154.622 1006.81 153.792 1003.76 153.805ZM1046.74 184.753C1042.35 184.753 1038.15 186.494 1035.05 189.595C1031.95 192.695 1030.21 196.9 1030.21 201.284C1030.21 205.669 1031.95 209.874 1035.05 212.974C1038.15 216.074 1042.35 217.816 1046.74 217.816C1051.12 217.816 1055.33 216.074 1058.43 212.974C1061.53 209.874 1063.27 205.669 1063.27 201.284C1063.27 196.9 1061.53 192.695 1058.43 189.595C1055.33 186.494 1051.12 184.753 1046.74 184.753ZM254.412 184.753C252.241 184.605 250.062 184.886 248 185.581C245.938 186.275 244.033 187.369 242.393 188.8C240.754 190.23 239.412 191.97 238.445 193.919C237.478 195.868 236.904 197.989 236.756 200.16C236.609 202.331 236.89 204.51 237.584 206.572C238.279 208.634 239.373 210.539 240.803 212.179C242.234 213.818 243.974 215.16 245.923 216.127C247.872 217.094 249.993 217.668 252.164 217.816C256.548 218.114 260.871 216.658 264.183 213.769C267.494 210.879 269.521 206.793 269.819 202.408C270.118 198.024 268.662 193.701 265.772 190.389C262.883 187.078 258.796 185.051 254.412 184.753ZM1096.07 206.442C1092.68 206.185 1089.29 206.989 1086.38 208.742C1083.46 210.496 1081.16 213.112 1079.8 216.229C1078.83 218.458 1077.63 220.584 1076.23 222.577C1074.94 224.355 1074.01 226.373 1073.5 228.514C1073 230.654 1072.93 232.874 1073.29 235.043C1073.65 237.212 1074.45 239.287 1075.62 241.146C1076.8 243.004 1078.33 244.61 1080.14 245.868C1081.94 247.127 1083.98 248.012 1086.13 248.473C1088.28 248.935 1090.5 248.962 1092.66 248.554C1094.82 248.147 1096.88 247.312 1098.71 246.098C1100.55 244.885 1102.12 243.318 1103.34 241.489C1105.85 237.952 1108.02 234.188 1109.82 230.248C1111.03 227.809 1111.61 225.111 1111.52 222.394C1111.43 219.676 1110.67 217.023 1109.31 214.668C1107.95 212.314 1106.03 210.332 1103.72 208.897C1101.41 207.462 1098.78 206.619 1096.07 206.442ZM1258.08 208.558C1253.83 208.223 1249.62 209.554 1246.34 212.269C1243.06 214.985 1240.96 218.871 1240.49 223.106C1237.47 249.801 1229.01 275.593 1215.63 298.887C1202.17 322.156 1184.07 342.413 1162.46 358.401C1160.75 359.738 1159.32 361.399 1158.25 363.289C1157.18 365.18 1156.5 367.262 1156.23 369.417C1155.97 371.572 1156.13 373.758 1156.71 375.851C1157.29 377.943 1158.28 379.9 1159.62 381.611C1160.95 383.322 1162.62 384.752 1164.51 385.821C1166.4 386.89 1168.48 387.576 1170.63 387.84C1172.79 388.104 1174.97 387.941 1177.07 387.36C1179.16 386.779 1181.12 385.792 1182.83 384.454C1207.75 365.84 1228.63 342.352 1244.19 315.418C1259.73 288.464 1269.63 258.632 1273.29 227.735C1273.66 225.461 1273.56 223.133 1272.98 220.902C1272.4 218.671 1271.36 216.586 1269.93 214.78C1268.5 212.974 1266.7 211.488 1264.66 210.416C1262.62 209.345 1260.38 208.712 1258.08 208.558ZM1148.31 218.345C1144.63 218.043 1140.97 218.988 1137.89 221.028C1134.82 223.067 1132.53 226.082 1131.38 229.586C1127.56 240.994 1121.49 251.518 1113.53 260.533C1111.41 262.912 1110.03 265.85 1109.55 268.993C1109.06 272.137 1109.5 275.354 1110.8 278.258C1112.09 281.162 1114.2 283.63 1116.87 285.365C1119.54 287.101 1122.65 288.03 1125.83 288.042C1131.12 288.042 1135.61 285.662 1138.66 281.958C1149.2 269.887 1157.29 255.87 1162.46 240.696C1163.4 238.279 1163.76 235.675 1163.51 233.095C1163.25 230.514 1162.4 228.03 1161.01 225.841C1159.62 223.653 1157.73 221.822 1155.5 220.497C1153.27 219.171 1150.76 218.389 1148.18 218.213L1148.31 218.345ZM1202.67 219.271C1198.72 218.993 1194.8 220.152 1191.64 222.534C1188.48 224.916 1186.29 228.36 1185.47 232.231C1182.34 246.346 1177.07 259.902 1169.87 272.436C1162.62 284.933 1153.53 296.26 1142.89 306.029C1141.19 307.497 1139.81 309.295 1138.83 311.313C1137.85 313.332 1137.29 315.529 1137.19 317.77C1137.09 320.012 1137.44 322.251 1138.23 324.351C1139.02 326.451 1140.23 328.368 1141.78 329.986C1143.34 331.604 1145.21 332.888 1147.27 333.761C1149.34 334.633 1151.56 335.076 1153.81 335.062C1156.05 335.048 1158.27 334.577 1160.33 333.678C1162.38 332.779 1164.23 331.471 1165.77 329.834C1178.63 317.915 1189.64 304.141 1198.43 288.968C1207.19 273.699 1213.61 257.205 1217.48 240.034C1218.11 237.68 1218.21 235.215 1217.78 232.816C1217.34 230.418 1216.38 228.145 1214.97 226.161C1213.55 224.177 1211.71 222.53 1209.59 221.339C1207.46 220.147 1205.1 219.441 1202.67 219.271ZM247.006 237.521C242.621 237.486 238.403 239.194 235.277 242.27C232.152 245.345 230.377 249.536 230.342 253.921C230.307 258.305 232.015 262.524 235.09 265.649C238.166 268.774 242.357 270.55 246.741 270.585C251.052 270.996 255.392 270.996 259.702 270.585C261.873 270.394 263.985 269.777 265.918 268.77C267.85 267.762 269.566 266.384 270.966 264.714C272.366 263.044 273.423 261.114 274.077 259.035C274.732 256.957 274.97 254.769 274.779 252.598C274.588 250.427 273.971 248.315 272.964 246.383C271.957 244.45 270.578 242.735 268.908 241.335C267.238 239.935 265.308 238.877 263.23 238.223C261.151 237.569 258.963 237.33 256.793 237.521C254.374 237.769 251.937 237.769 249.519 237.521C248.638 237.451 247.754 237.451 246.874 237.521H247.006ZM-17.7646 243.737C-21.223 243.765 -24.5857 244.876 -27.3793 246.915C-30.1728 248.954 -32.2566 251.818 -33.3371 255.104C-34.4176 258.389 -34.4406 261.931 -33.4026 265.23C-32.3647 268.529 -30.3182 271.419 -27.5513 273.494C-5.98846 289.496 12.0616 309.751 25.4821 333.008C38.8762 356.297 47.3392 382.092 50.3457 408.789C50.9595 413.138 53.276 417.066 56.7855 419.707C60.295 422.349 64.7101 423.488 69.0595 422.874C73.4089 422.26 77.3363 419.944 79.9777 416.434C82.6191 412.925 83.7582 408.51 83.1444 404.16C79.4873 373.263 69.5884 343.431 54.0488 316.477C38.4847 289.543 17.6066 266.055 -7.31659 247.44C-10.2989 245.002 -14.0446 243.691 -17.8968 243.737H-17.7646ZM232.326 288.703C228.189 288.679 224.193 290.206 221.127 292.984C218.061 295.762 216.149 299.589 215.767 303.708C215.385 307.827 216.561 311.94 219.064 315.235C221.566 318.529 225.213 320.765 229.284 321.502C245.002 324.61 261.177 324.61 276.895 321.502C279.04 321.12 281.089 320.319 282.924 319.145C284.759 317.972 286.346 316.448 287.592 314.661C288.839 312.874 289.721 310.859 290.189 308.731C290.657 306.603 290.701 304.404 290.319 302.259C289.937 300.114 289.136 298.066 287.962 296.23C286.788 294.395 285.264 292.809 283.477 291.562C281.69 290.316 279.676 289.433 277.548 288.965C275.42 288.498 273.221 288.454 271.076 288.836C259.294 291.237 247.149 291.237 235.368 288.836C234.364 288.655 233.346 288.566 232.326 288.571V288.703ZM-36.1477 297.168C-39.4692 297.184 -42.7086 298.201 -45.4439 300.085C-48.1792 301.969 -50.2834 304.634 -51.4825 307.731C-52.6815 310.829 -52.9197 314.215 -52.166 317.45C-51.4123 320.685 -49.7016 323.618 -47.257 325.866C-36.6767 335.653 -27.5513 347.027 -20.2774 359.459C-13.0723 371.994 -7.81053 385.55 -4.67152 399.664C-3.95296 402.91 -2.27223 405.864 0.151184 408.14C2.5746 410.417 5.6281 411.909 8.91296 412.423C12.1978 412.938 15.5614 412.449 18.5644 411.022C21.5675 409.595 24.0705 407.296 25.7466 404.425C27.9949 400.457 28.3917 395.96 27.4659 391.728C23.5421 374.596 17.0784 358.147 8.28925 342.927C-0.493912 327.708 -11.5046 313.889 -24.3772 301.929C-25.9286 300.398 -27.7671 299.19 -29.7872 298.373C-31.8072 297.556 -33.9688 297.146 -36.1477 297.168ZM203.891 336.447C200.049 336.839 196.466 338.564 193.763 341.323C191.06 344.081 189.408 347.699 189.094 351.548C188.78 355.397 189.823 359.234 192.043 362.395C194.263 365.555 197.519 367.838 201.246 368.849C218.076 374.081 235.597 376.756 253.222 376.784C270.811 376.784 288.269 374.139 305.065 368.849C307.149 368.241 309.093 367.228 310.786 365.869C312.479 364.51 313.887 362.831 314.931 360.927C315.975 359.024 316.634 356.933 316.87 354.775C317.106 352.617 316.914 350.434 316.306 348.349C315.698 346.265 314.686 344.321 313.327 342.628C311.968 340.936 310.288 339.527 308.385 338.483C306.481 337.439 304.391 336.781 302.233 336.545C300.075 336.309 297.891 336.5 295.807 337.108C282.028 341.453 267.67 343.683 253.222 343.721C238.729 343.696 224.325 341.467 210.504 337.108C208.367 336.442 206.118 336.217 203.891 336.447ZM-64.1853 343.721C-67.3664 343.732 -70.4764 344.662 -73.1424 346.397C-75.8084 348.133 -77.9171 350.6 -79.2155 353.504C-80.514 356.408 -80.947 359.625 -80.4626 362.769C-79.9783 365.913 -78.5971 368.851 -76.4849 371.229C-68.5119 380.239 -62.4393 390.764 -58.6307 402.176C-57.608 405.169 -55.7483 407.806 -53.2722 409.773C-50.7961 411.741 -47.8075 412.957 -44.6611 413.277C-41.5147 413.597 -38.3424 413.008 -35.5207 411.58C-32.699 410.151 -30.3462 407.944 -28.7416 405.218C-26.0965 400.722 -25.832 395.564 -27.419 391.067C-32.629 375.882 -40.7612 361.865 -51.3568 349.804C-52.909 347.901 -54.8657 346.367 -57.0847 345.315C-59.3038 344.263 -61.7294 343.718 -64.1853 343.721ZM167.919 378.9C164.111 379.072 160.48 380.555 157.64 383.097C154.801 385.64 152.927 389.085 152.335 392.85C151.744 396.615 152.472 400.469 154.396 403.759C156.32 407.05 159.322 409.574 162.893 410.905C191.418 423.223 222.15 429.613 253.222 429.685C284.328 429.669 315.106 423.324 343.683 411.037C345.697 410.221 347.531 409.016 349.08 407.491C350.629 405.966 351.863 404.15 352.71 402.149C353.557 400.147 354.002 397.998 354.019 395.824C354.036 393.65 353.624 391.495 352.808 389.48C351.992 387.465 350.787 385.631 349.262 384.082C347.737 382.533 345.921 381.3 343.919 380.453C341.918 379.605 339.769 379.161 337.595 379.144C335.421 379.127 333.266 379.538 331.251 380.355C306.629 391.061 280.071 396.597 253.222 396.622C226.373 396.597 199.815 391.061 175.192 380.355C172.897 379.375 170.412 378.923 167.919 379.032V378.9ZM-100.423 382.867C-103.504 382.843 -106.531 383.68 -109.162 385.284C-111.793 386.888 -113.923 389.196 -115.312 391.946C-116.701 394.697 -117.294 397.781 -117.023 400.851C-116.752 403.92 -115.629 406.853 -113.78 409.318C-112.392 411.27 -111.196 413.351 -110.209 415.534C-109.289 417.505 -107.989 419.276 -106.384 420.745C-104.78 422.214 -102.901 423.352 -100.856 424.095C-98.8117 424.838 -96.6406 425.171 -94.4672 425.075C-92.2937 424.979 -90.1605 424.456 -88.1893 423.535C-86.218 422.615 -84.4474 421.315 -82.9785 419.71C-81.5095 418.105 -80.3711 416.227 -79.6281 414.182C-78.8851 412.138 -78.5521 409.966 -78.6482 407.793C-78.7443 405.62 -79.2675 403.486 -80.188 401.515C-82.036 397.57 -84.2499 393.806 -86.8006 390.274C-88.3076 388.044 -90.3362 386.216 -92.7101 384.948C-95.084 383.681 -97.7315 383.012 -100.423 383V382.867ZM1443.5 414.079C1439.11 414.079 1434.91 415.821 1431.81 418.921C1428.71 422.021 1426.97 426.226 1426.97 430.611C1426.97 434.995 1428.71 439.2 1431.81 442.3C1434.91 445.401 1439.11 447.142 1443.5 447.142V414.079ZM-143.537 414.079V447.142C-139.153 447.142 -134.948 445.401 -131.847 442.3C-128.747 439.2 -127.005 434.995 -127.005 430.611C-127.005 426.226 -128.747 422.021 -131.847 418.921C-134.948 415.821 -139.153 414.079 -143.537 414.079V414.079ZM1046.74 431.537C1015.68 431.567 984.945 437.912 956.411 450.184C954.352 450.96 952.469 452.139 950.872 453.652C949.275 455.165 947.996 456.981 947.11 458.995C946.224 461.008 945.749 463.179 945.712 465.378C945.675 467.578 946.078 469.763 946.897 471.804C947.715 473.846 948.933 475.704 950.479 477.27C952.025 478.835 953.867 480.076 955.899 480.92C957.93 481.764 960.11 482.194 962.31 482.185C964.51 482.176 966.686 481.728 968.71 480.867C993.331 470.157 1019.89 464.62 1046.74 464.6C1073.59 464.6 1100.17 470.287 1124.77 480.999C1126.79 481.807 1128.95 482.208 1131.13 482.18C1133.31 482.152 1135.46 481.695 1137.46 480.835C1139.47 479.975 1141.28 478.73 1142.8 477.169C1144.32 475.609 1145.52 473.765 1146.33 471.741C1147.13 469.718 1147.53 467.556 1147.51 465.377C1147.48 463.199 1147.02 461.047 1146.16 459.046C1145.3 457.044 1144.06 455.231 1142.5 453.71C1140.94 452.19 1139.09 450.992 1137.07 450.184C1108.52 437.957 1077.79 431.658 1046.74 431.669V431.537ZM1394.04 435.769C1391.33 435.966 1388.72 436.823 1386.43 438.267C1384.14 439.71 1382.23 441.695 1380.89 444.046C1379.54 446.397 1378.8 449.043 1378.71 451.751C1378.63 454.458 1379.21 457.145 1380.41 459.574C1382.22 463.517 1384.38 467.281 1386.89 470.816C1388.12 472.645 1389.69 474.212 1391.52 475.425C1393.36 476.638 1395.42 477.473 1397.58 477.881C1399.74 478.289 1401.96 478.261 1404.11 477.8C1406.26 477.339 1408.3 476.453 1410.1 475.195C1411.9 473.937 1413.44 472.331 1414.61 470.472C1415.79 468.613 1416.58 466.539 1416.95 464.37C1417.31 462.201 1417.24 459.981 1416.73 457.84C1416.23 455.7 1415.3 453.681 1414.01 451.903C1412.56 449.917 1411.32 447.79 1410.3 445.555C1408.93 442.45 1406.62 439.845 1403.71 438.094C1400.8 436.343 1397.42 435.531 1394.04 435.769ZM1232.03 437.885C1229.74 438.056 1227.51 438.702 1225.49 439.781C1223.46 440.86 1221.68 442.349 1220.26 444.153C1218.85 445.956 1217.82 448.036 1217.25 450.258C1216.68 452.481 1216.58 454.797 1216.95 457.061C1220.57 487.948 1230.42 517.779 1245.91 544.745C1261.49 571.629 1282.37 595.07 1307.28 613.649C1310.73 616.35 1315.12 617.567 1319.47 617.034C1323.82 616.501 1327.79 614.26 1330.49 610.805C1333.19 607.35 1334.41 602.964 1333.87 598.611C1333.34 594.258 1331.1 590.296 1327.64 587.595C1306.03 571.607 1287.94 551.351 1274.48 528.081C1261.11 504.827 1252.65 479.082 1249.62 452.432C1249.12 448.211 1247.01 444.345 1243.73 441.636C1240.46 438.926 1236.27 437.583 1232.03 437.885ZM1341.93 447.539C1339.34 447.716 1336.83 448.498 1334.6 449.823C1332.38 451.148 1330.49 452.979 1329.1 455.168C1327.71 457.356 1326.85 459.841 1326.6 462.421C1326.35 465.002 1326.71 467.606 1327.64 470.022C1332.81 485.196 1340.9 499.214 1351.45 511.285C1352.82 513.06 1354.53 514.539 1356.49 515.632C1358.44 516.725 1360.6 517.409 1362.83 517.643C1365.06 517.876 1367.31 517.654 1369.45 516.99C1371.59 516.326 1373.57 515.234 1375.28 513.781C1376.98 512.327 1378.37 510.542 1379.37 508.534C1380.36 506.526 1380.94 504.337 1381.06 502.1C1381.18 499.863 1380.84 497.624 1380.07 495.52C1379.3 493.416 1378.12 491.49 1376.58 489.86C1368.61 480.844 1362.54 470.32 1358.72 458.913C1357.59 455.421 1355.32 452.407 1352.28 450.347C1349.23 448.288 1345.59 447.3 1341.93 447.539ZM1287.44 448.597C1285.01 448.768 1282.64 449.474 1280.52 450.665C1278.39 451.857 1276.55 453.503 1275.14 455.488C1273.72 457.472 1272.76 459.745 1272.33 462.143C1271.9 464.541 1272 467.006 1272.63 469.361C1276.5 486.531 1282.92 503.025 1291.67 518.294C1300.5 533.52 1311.55 547.339 1324.47 559.293C1326.79 561.592 1329.74 563.153 1332.94 563.778C1336.15 564.403 1339.47 564.065 1342.48 562.806C1345.5 561.547 1348.07 559.423 1349.88 556.703C1351.68 553.983 1352.65 550.788 1352.64 547.522C1352.64 542.761 1350.66 538.265 1347.35 535.355C1325.91 515.639 1311.01 489.845 1304.63 461.426C1303.78 457.544 1301.57 454.098 1298.38 451.717C1295.2 449.337 1291.27 448.183 1287.31 448.465L1287.44 448.597ZM127.581 472.932C123.614 472.932 119.911 474.254 117.001 476.635C92.078 495.249 71.1999 518.737 55.6358 545.671C40.0996 572.627 30.2009 602.458 26.5402 633.354C26.2362 635.508 26.3595 637.701 26.9028 639.806C27.4461 641.912 28.399 643.891 29.7069 645.628C31.0148 647.366 32.6522 648.829 34.5255 649.934C36.3989 651.039 38.4715 651.764 40.6251 652.068C42.7787 652.372 44.9711 652.249 47.077 651.706C49.183 651.162 51.1613 650.209 52.8991 648.902C54.6368 647.594 56.0999 645.956 57.2049 644.083C58.3098 642.21 59.035 640.137 59.3389 637.983C62.3528 611.288 70.8153 585.495 84.2024 562.202C97.6585 538.931 115.755 518.673 137.368 502.689C140.135 500.614 142.182 497.723 143.219 494.424C144.257 491.125 144.234 487.583 143.154 484.298C142.073 481.012 139.99 478.149 137.196 476.11C134.403 474.071 131.04 472.959 127.581 472.932ZM1046.74 484.438C1029.15 484.438 1011.69 487.083 994.896 492.373C992.812 492.981 990.868 493.993 989.175 495.352C987.482 496.711 986.074 498.391 985.03 500.294C983.986 502.198 983.327 504.288 983.091 506.446C982.855 508.604 983.047 510.788 983.655 512.872C984.263 514.956 985.275 516.9 986.634 518.593C987.993 520.286 989.672 521.695 991.576 522.738C993.479 523.782 995.57 524.441 997.728 524.677C999.886 524.913 1002.07 524.721 1004.15 524.114C1017.93 519.766 1032.29 517.537 1046.74 517.501C1061.29 517.501 1075.57 519.882 1089.32 524.114C1092.51 525.129 1095.92 525.156 1099.12 524.191C1102.32 523.226 1105.15 521.314 1107.24 518.708C1109.33 516.102 1110.59 512.924 1110.83 509.592C1111.08 506.26 1110.32 502.931 1108.63 500.044C1106.43 496.256 1102.82 493.497 1098.58 492.373C1081.79 487.154 1064.32 484.479 1046.74 484.438ZM145.832 526.23C141.336 526.23 137.104 528.081 134.194 531.123C121.275 543.074 110.219 556.894 101.395 572.121C92.6487 587.348 86.2294 603.797 82.3509 620.923C81.8299 623.033 81.7296 625.225 82.0557 627.374C82.3819 629.523 83.1281 631.587 84.2518 633.447C85.3755 635.308 86.8547 636.929 88.6048 638.218C90.355 639.506 92.3419 640.438 94.4521 640.959C96.5622 641.48 98.7543 641.58 100.903 641.254C103.052 640.928 105.116 640.182 106.976 639.058C108.837 637.934 110.458 636.455 111.747 634.705C113.036 632.955 113.967 630.968 114.488 628.858C117.625 614.744 122.887 601.188 130.094 588.653C137.328 576.11 146.425 564.739 157.074 554.929C159.527 552.672 161.24 549.727 161.99 546.48C162.74 543.233 162.491 539.835 161.275 536.732C160.06 533.629 157.935 530.965 155.179 529.091C152.423 527.217 149.165 526.22 145.832 526.23ZM1046.74 537.339C1038.8 537.339 1030.74 538.132 1022.93 539.719C1019.55 540.244 1016.41 541.807 1013.95 544.195C1011.49 546.582 1009.83 549.674 1009.21 553.044C1008.58 556.413 1009.02 559.894 1010.46 563.004C1011.9 566.114 1014.27 568.699 1017.25 570.402C1020.95 572.518 1025.05 573.047 1028.89 572.254C1040.67 569.852 1052.81 569.852 1064.59 572.254C1066.73 572.653 1068.92 572.628 1071.05 572.179C1073.18 571.731 1075.19 570.868 1076.99 569.64C1078.78 568.412 1080.31 566.843 1081.5 565.022C1082.69 563.201 1083.5 561.165 1083.9 559.028C1084.3 556.892 1084.28 554.698 1083.83 552.572C1083.38 550.445 1082.52 548.428 1081.29 546.635C1080.06 544.842 1078.49 543.308 1076.67 542.122C1074.85 540.935 1072.81 540.119 1070.68 539.719C1062.79 538.144 1054.78 537.347 1046.74 537.339ZM174.002 573.047C168.844 573.047 164.215 575.295 161.306 578.999C150.743 591.109 142.655 605.173 137.5 620.394C136.618 622.467 136.168 624.699 136.179 626.952C136.191 629.206 136.662 631.433 137.566 633.497C138.469 635.562 139.785 637.419 141.432 638.957C143.08 640.494 145.024 641.678 147.146 642.437C149.268 643.195 151.523 643.512 153.772 643.367C156.02 643.223 158.216 642.62 160.223 641.596C162.23 640.572 164.007 639.148 165.444 637.413C166.881 635.677 167.948 633.666 168.58 631.503C172.382 620.049 178.455 609.478 186.434 600.424C188.554 598.037 189.937 595.087 190.417 591.931C190.896 588.775 190.452 585.547 189.138 582.638C187.823 579.729 185.694 577.263 183.008 575.538C180.322 573.812 177.194 572.901 174.002 572.915V573.047ZM1046.74 590.108C1044.62 590.108 1042.38 590.108 1040.26 590.505C1038.07 590.664 1035.94 591.256 1033.98 592.248C1032.03 593.239 1030.29 594.609 1028.87 596.279C1027.45 597.949 1026.37 599.885 1025.71 601.974C1025.04 604.063 1024.8 606.264 1024.99 608.448C1025.18 610.632 1025.81 612.755 1026.83 614.695C1027.85 616.635 1029.25 618.353 1030.94 619.747C1032.63 621.142 1034.59 622.187 1036.68 622.82C1038.78 623.453 1040.99 623.662 1043.17 623.436C1045.59 623.197 1048.02 623.197 1050.44 623.436C1052.61 623.618 1054.8 623.371 1056.87 622.709C1058.95 622.046 1060.87 620.982 1062.54 619.575C1064.2 618.169 1065.57 616.449 1066.57 614.513C1067.57 612.577 1068.18 610.464 1068.36 608.293C1068.55 606.122 1068.3 603.936 1067.64 601.86C1066.97 599.785 1065.91 597.86 1064.5 596.196C1063.1 594.532 1061.38 593.161 1059.44 592.162C1057.5 591.163 1055.39 590.555 1053.22 590.372C1051.06 590.186 1048.9 590.098 1046.74 590.108ZM210.239 612.194C204.553 612.194 199.659 615.104 196.485 619.468C194.028 623.012 191.903 626.775 190.137 630.709C189.073 632.689 188.423 634.864 188.228 637.103C188.032 639.342 188.295 641.597 189.001 643.731C189.707 645.864 190.84 647.832 192.332 649.513C193.823 651.193 195.642 652.553 197.677 653.507C199.711 654.461 201.919 654.991 204.165 655.063C206.411 655.135 208.649 654.749 210.74 653.927C212.832 653.105 214.734 651.866 216.331 650.284C217.928 648.703 219.185 646.812 220.026 644.728C221.045 642.493 222.285 640.367 223.729 638.38C225.509 635.906 226.571 632.987 226.796 629.947C227.021 626.908 226.402 623.865 225.006 621.155C223.61 618.445 221.492 616.174 218.886 614.593C216.28 613.011 213.288 612.181 210.239 612.194ZM253.222 643.273C248.837 643.273 244.632 645.015 241.532 648.115C238.432 651.216 236.69 655.421 236.69 659.805C236.69 664.19 238.432 668.394 241.532 671.495C244.632 674.595 248.837 676.337 253.222 676.337C257.606 676.337 261.811 674.595 264.911 671.495C268.012 668.394 269.753 664.19 269.753 659.805C269.753 655.421 268.012 651.216 264.911 648.115C261.811 645.015 257.606 643.273 253.222 643.273ZM1047.93 643.273C1043.55 642.975 1039.22 644.431 1035.91 647.321C1032.6 650.21 1030.57 654.297 1030.27 658.681C1029.98 663.065 1031.43 667.389 1034.32 670.7C1037.21 674.011 1041.3 676.039 1045.68 676.337C1047.85 676.484 1050.03 676.203 1052.09 675.508C1054.16 674.814 1056.06 673.72 1057.7 672.29C1059.34 670.859 1060.68 669.119 1061.65 667.17C1062.62 665.221 1063.19 663.1 1063.34 660.929C1063.48 658.758 1063.2 656.579 1062.51 654.517C1061.81 652.455 1060.72 650.55 1059.29 648.91C1057.86 647.271 1056.12 645.929 1054.17 644.962C1052.22 643.995 1050.1 643.421 1047.93 643.273ZM302.552 664.963C299.182 664.734 295.824 665.551 292.936 667.303C290.048 669.055 287.771 671.655 286.417 674.75C285.398 676.984 284.157 679.111 282.714 681.098C281.419 682.876 280.492 684.894 279.987 687.034C279.482 689.175 279.409 691.395 279.773 693.564C280.137 695.733 280.93 697.808 282.105 699.667C283.281 701.525 284.815 703.131 286.619 704.389C288.423 705.647 290.46 706.533 292.61 706.994C294.761 707.456 296.981 707.483 299.143 707.075C301.304 706.667 303.362 705.833 305.196 704.619C307.031 703.406 308.605 701.839 309.826 700.01C312.365 696.47 314.578 692.707 316.439 688.768C317.644 686.32 318.224 683.611 318.128 680.884C318.031 678.156 317.261 675.495 315.886 673.138C314.511 670.78 312.574 668.8 310.247 667.374C307.92 665.947 305.277 665.119 302.552 664.963ZM464.562 666.947C460.316 666.65 456.121 668.015 452.863 670.755C449.605 673.494 447.54 677.393 447.104 681.627C444.05 708.332 435.542 734.126 422.109 757.408C408.688 780.665 390.638 800.92 369.075 816.922C367.365 818.259 365.934 819.92 364.865 821.81C363.797 823.7 363.111 825.783 362.847 827.938C362.582 830.093 362.746 832.279 363.326 834.372C363.907 836.464 364.894 838.421 366.232 840.132C367.569 841.843 369.23 843.273 371.12 844.342C373.011 845.411 375.093 846.097 377.248 846.361C379.403 846.625 381.59 846.462 383.682 845.881C385.774 845.3 387.732 844.313 389.442 842.975C414.365 824.361 435.243 800.873 450.808 773.939C466.344 746.983 476.242 717.152 479.903 686.256C480.298 683.961 480.204 681.609 479.627 679.354C479.05 677.098 478.003 674.99 476.555 673.167C475.107 671.344 473.289 669.848 471.223 668.776C469.156 667.704 466.886 667.081 464.562 666.947ZM354.792 676.733C351.101 676.44 347.418 677.404 344.345 679.469C341.271 681.534 338.987 684.579 337.864 688.107C334.048 699.516 327.977 710.041 320.009 719.054C318.472 720.685 317.283 722.61 316.513 724.714C315.743 726.818 315.409 729.057 315.53 731.294C315.652 733.531 316.227 735.72 317.221 737.728C318.215 739.736 319.607 741.521 321.312 742.975C323.017 744.429 324.999 745.521 327.139 746.185C329.279 746.849 331.532 747.07 333.76 746.837C335.988 746.604 338.146 745.92 340.102 744.827C342.057 743.734 343.771 742.255 345.137 740.479C355.697 728.416 363.785 714.396 368.943 699.216C369.882 696.8 370.24 694.196 369.988 691.616C369.735 689.035 368.879 686.55 367.488 684.362C366.098 682.173 364.213 680.343 361.984 679.018C359.755 677.692 357.246 676.91 354.66 676.733H354.792ZM409.28 677.792C405.333 677.514 401.419 678.673 398.259 681.055C395.099 683.437 392.907 686.881 392.087 690.752C388.867 704.881 383.516 718.438 376.217 730.957C369.014 743.445 359.963 754.771 349.37 764.549C346.925 766.798 345.214 769.731 344.461 772.966C343.707 776.2 343.945 779.587 345.144 782.685C346.343 785.782 348.447 788.447 351.183 790.331C353.918 792.215 357.157 793.232 360.479 793.248C365.108 793.248 369.208 791.397 372.249 788.487C385.12 776.525 396.131 762.707 404.916 747.489C413.777 732.147 420.125 715.748 424.092 698.555C424.722 696.201 424.824 693.736 424.39 691.337C423.955 688.939 422.996 686.666 421.581 684.682C420.165 682.698 418.328 681.051 416.202 679.86C414.075 678.668 411.712 677.962 409.28 677.792ZM1040.52 695.91C1038.35 695.893 1036.2 696.303 1034.19 697.118C1032.17 697.933 1030.34 699.136 1028.8 700.659C1027.25 702.181 1026.02 703.994 1025.17 705.993C1024.32 707.992 1023.88 710.139 1023.86 712.31C1023.84 714.48 1024.25 716.634 1025.07 718.646C1025.88 720.658 1027.09 722.49 1028.61 724.038C1030.13 725.585 1031.94 726.818 1033.94 727.664C1035.94 728.511 1038.09 728.956 1040.26 728.973C1044.57 729.383 1048.91 729.383 1053.22 728.973C1055.39 728.782 1057.5 728.166 1059.44 727.158C1061.37 726.151 1063.08 724.773 1064.48 723.103C1065.88 721.432 1066.94 719.503 1067.59 717.424C1068.25 715.345 1068.49 713.158 1068.3 710.987C1068.11 708.816 1067.49 706.704 1066.48 704.771C1065.47 702.839 1064.1 701.123 1062.43 699.723C1060.76 698.323 1058.83 697.266 1056.75 696.612C1054.67 695.958 1052.48 695.719 1050.31 695.91C1047.89 696.158 1045.45 696.158 1043.04 695.91C1042.16 695.839 1041.27 695.839 1040.39 695.91H1040.52ZM775.753 702.126C772.26 702.116 768.854 703.213 766.023 705.258C763.193 707.304 761.082 710.194 759.996 713.513C758.909 716.833 758.901 720.411 759.974 723.735C761.046 727.059 763.144 729.957 765.966 732.015C787.481 748.03 805.485 768.285 818.867 791.529C832.316 814.767 840.868 840.511 843.995 867.178C844.166 869.433 844.798 871.629 845.851 873.631C846.905 875.632 848.358 877.396 850.12 878.814C851.883 880.231 853.917 881.272 856.098 881.871C858.279 882.471 860.56 882.617 862.799 882.299C865.039 881.982 867.189 881.208 869.118 880.027C871.046 878.845 872.712 877.28 874.011 875.428C875.311 873.577 876.216 871.479 876.672 869.263C877.128 867.048 877.125 864.763 876.662 862.549C873.005 831.651 863.106 801.82 847.566 774.865C831.988 747.979 811.111 724.537 786.201 705.961C783.237 703.475 779.49 702.116 775.621 702.126H775.753ZM1025.84 747.092C1021.71 747.068 1017.71 748.595 1014.64 751.373C1011.58 754.151 1009.67 757.977 1009.28 762.097C1008.9 766.216 1010.08 770.329 1012.58 773.623C1015.08 776.918 1018.73 779.154 1022.8 779.891C1038.52 782.995 1054.69 782.995 1070.41 779.891C1072.6 779.562 1074.69 778.799 1076.58 777.646C1078.46 776.493 1080.1 774.974 1081.39 773.179C1082.67 771.384 1083.59 769.348 1084.08 767.193C1084.57 765.038 1084.62 762.807 1084.23 760.632C1083.84 758.457 1083.02 756.382 1081.81 754.53C1080.61 752.678 1079.04 751.086 1077.21 749.848C1075.38 748.611 1073.32 747.752 1071.16 747.324C1068.99 746.896 1066.76 746.907 1064.59 747.357C1052.81 749.758 1040.67 749.758 1028.89 747.357C1027.89 747.13 1026.87 746.997 1025.84 746.96V747.092ZM757.37 755.556C754.037 755.546 750.779 756.544 748.023 758.418C745.268 760.292 743.143 762.955 741.927 766.058C740.711 769.161 740.462 772.56 741.212 775.807C741.962 779.054 743.675 781.999 746.128 784.255C756.709 794.042 765.966 805.416 773.108 817.847C780.373 830.415 785.68 844.017 788.846 858.185C789.565 861.431 791.245 864.385 793.669 866.661C796.092 868.938 799.146 870.43 802.431 870.944C805.715 871.459 809.079 870.97 812.082 869.543C815.085 868.116 817.588 865.817 819.264 862.946C821.513 858.978 821.909 854.481 820.984 850.382C817.072 833.204 810.608 816.709 801.807 801.448C793.022 786.23 782.012 772.411 769.14 760.45C767.589 758.919 765.75 757.711 763.73 756.894C761.71 756.077 759.549 755.667 757.37 755.688V755.556ZM997.409 794.835C993.567 795.228 989.984 796.953 987.281 799.711C984.578 802.47 982.926 806.087 982.612 809.936C982.298 813.785 983.341 817.623 985.561 820.783C987.78 823.944 991.036 826.227 994.764 827.237C1011.59 832.471 1029.11 835.146 1046.74 835.172C1064.33 835.172 1081.79 832.527 1098.45 827.237C1102.66 826.01 1106.21 823.16 1108.32 819.316C1110.42 815.472 1110.92 810.947 1109.69 806.738C1108.46 802.529 1105.61 798.98 1101.77 796.872C1097.93 794.764 1093.4 794.269 1089.19 795.497C1075.41 799.842 1061.05 802.072 1046.61 802.109C1032.19 802.109 1017.78 799.861 1004.02 795.497C1001.88 794.831 999.635 794.606 997.409 794.835ZM729.332 802.242C726.151 802.253 723.041 803.183 720.375 804.918C717.709 806.654 715.6 809.121 714.302 812.025C713.004 814.929 712.571 818.146 713.055 821.29C713.539 824.434 714.92 827.372 717.033 829.75C725 838.764 731.072 849.288 734.887 860.697C735.91 863.69 737.769 866.327 740.245 868.294C742.721 870.262 745.71 871.478 748.857 871.798C752.003 872.118 755.175 871.529 757.997 870.101C760.819 868.672 763.171 866.464 764.776 863.739C767.421 859.375 767.686 854.217 766.099 849.72C760.914 834.484 752.78 820.419 742.161 808.325C740.609 806.422 738.652 804.888 736.433 803.836C734.214 802.784 731.788 802.239 729.332 802.242ZM961.436 837.421C957.629 837.593 953.998 839.076 951.158 841.618C948.318 844.16 946.444 847.606 945.853 851.371C945.262 855.136 945.99 858.99 947.914 862.28C949.837 865.571 952.839 868.095 956.411 869.426C984.945 881.699 1015.68 888.043 1046.74 888.074C1077.85 888.061 1108.62 881.716 1137.2 869.426C1139.21 868.61 1141.05 867.405 1142.6 865.88C1144.15 864.354 1145.38 862.539 1146.23 860.537C1147.08 858.536 1147.52 856.386 1147.54 854.213C1147.55 852.039 1147.14 849.883 1146.33 847.869C1145.51 845.854 1144.3 844.02 1142.78 842.471C1141.25 840.922 1139.44 839.689 1137.44 838.841C1135.44 837.994 1133.29 837.549 1131.11 837.532C1128.94 837.516 1126.78 837.927 1124.77 838.743C1100.15 849.453 1073.59 854.99 1046.74 855.01C1020.02 855.01 993.309 849.456 968.842 838.743C966.507 837.744 963.973 837.291 961.436 837.421ZM693.095 841.521C690.058 841.532 687.083 842.38 684.496 843.971C681.909 845.562 679.811 847.835 678.431 850.54C677.051 853.246 676.442 856.279 676.673 859.307C676.904 862.335 677.964 865.241 679.737 867.707C681.13 869.703 682.326 871.828 683.308 874.055C684.536 876.861 686.519 879.271 689.037 881.016C691.554 882.761 694.507 883.772 697.565 883.936C700.624 884.101 703.668 883.412 706.358 881.948C709.048 880.483 711.279 878.3 712.801 875.642C715.578 870.616 715.578 864.797 713.33 860.036C711.468 856.139 709.255 852.421 706.717 848.927C705.225 846.673 703.203 844.819 700.828 843.528C698.453 842.236 695.798 841.547 693.095 841.521ZM648.922 872.468C644.725 872.771 640.8 874.663 637.95 877.76C635.099 880.856 633.536 884.923 633.581 889.132H666.644C666.669 886.846 666.218 884.58 665.322 882.476C664.426 880.373 663.104 878.479 661.438 876.913C659.773 875.347 657.801 874.143 655.646 873.378C653.492 872.613 651.203 872.303 648.922 872.468Z" fill="white"/>
<path d="M104.437 -27.9102C104.437 -23.5257 106.179 -19.3208 109.279 -16.2205C112.379 -13.1203 116.584 -11.3785 120.969 -11.3785C125.353 -11.3785 129.558 -13.1203 132.658 -16.2205C135.759 -19.3208 137.5 -23.5257 137.5 -27.9102H104.437ZM1162.46 -27.9102C1162.46 -23.5257 1164.2 -19.3208 1167.3 -16.2205C1170.4 -13.1203 1174.61 -11.3785 1178.99 -11.3785C1183.38 -11.3785 1187.58 -13.1203 1190.68 -16.2205C1193.78 -19.3208 1195.52 -23.5257 1195.52 -27.9102H1162.46ZM783.82 -26.9844C743.252 -27.3218 703.335 -16.7718 668.231 3.56604C633.588 23.675 604.821 52.512 584.795 87.2031C564.769 121.894 554.185 161.228 554.097 201.284C554.061 236.871 562.355 271.972 578.315 303.778C594.276 335.585 617.46 363.214 646.013 384.454C647.724 385.792 649.681 386.779 651.773 387.36C653.865 387.941 656.052 388.104 658.207 387.84C660.362 387.576 662.444 386.89 664.335 385.821C666.225 384.752 667.886 383.322 669.223 381.611C670.561 379.9 671.548 377.943 672.129 375.851C672.71 373.758 672.873 371.572 672.609 369.417C672.345 367.262 671.659 365.18 670.59 363.289C669.521 361.399 668.091 359.738 666.38 358.401C641.782 340.256 621.796 316.582 608.035 289.289C594.273 261.996 587.123 231.85 587.16 201.284C587.233 167.053 596.269 133.438 613.37 103.784C630.47 74.1307 655.039 49.4728 684.631 32.2649C711.083 16.9632 740.766 8.10379 771.278 6.40358C801.79 4.70336 832.274 10.2101 860.263 22.4782C863.466 23.8893 867.034 24.2474 870.454 23.5008C873.873 22.7543 876.967 20.9416 879.291 18.324C881.615 15.7064 883.047 12.4188 883.383 8.93482C883.719 5.45084 882.94 1.95024 881.159 -1.06281C879.209 -4.36913 876.17 -6.89405 872.562 -8.20447C844.568 -20.2932 814.444 -26.6777 783.953 -26.9844H783.82ZM-12.8712 -26.9844C-43.4161 -26.6535 -73.5871 -20.2236 -101.613 -8.07222C-103.877 -7.46853 -105.987 -6.39046 -107.803 -4.90949C-109.618 -3.42852 -111.098 -1.57849 -112.145 0.51796C-113.191 2.6144 -113.78 4.90936 -113.873 7.25067C-113.965 9.59197 -113.558 11.9261 -112.68 14.0984C-111.801 16.2706 -110.471 18.2314 -108.778 19.8506C-107.084 21.4698 -105.066 22.7104 -102.856 23.4903C-100.647 24.2702 -98.2965 24.5715 -95.9617 24.3742C-93.6269 24.1769 -91.3607 23.4856 -89.3134 22.346C-61.3425 10.0997 -30.8831 4.60464 -0.396164 6.30474C30.0908 8.00484 59.7503 16.8524 86.1862 32.1327C115.802 49.3239 140.398 73.9746 157.522 103.629C174.647 133.284 183.703 166.908 183.789 201.152C183.826 231.718 176.676 261.864 162.915 289.157C149.153 316.449 129.167 340.124 104.569 358.268C102.859 359.606 101.428 361.267 100.359 363.157C99.2906 365.047 98.6047 367.129 98.3407 369.285C98.0766 371.44 98.2397 373.626 98.8205 375.718C99.4014 377.811 100.389 379.768 101.726 381.479C103.063 383.19 104.724 384.62 106.615 385.689C108.505 386.758 110.587 387.444 112.742 387.708C114.898 387.972 117.084 387.809 119.176 387.228C121.268 386.647 123.226 385.66 124.936 384.322C153.489 363.082 176.673 335.453 192.634 303.646C208.595 271.84 216.889 236.738 216.852 201.152C216.695 161.163 206.078 121.911 186.056 87.2957C166.034 52.6801 137.303 23.9056 102.718 3.83055C67.6399 -16.5998 27.7218 -27.2415 -12.8712 -26.9844ZM1129.53 -22.62C1126.83 -22.4231 1124.22 -21.5652 1121.92 -20.1219C1119.63 -18.6786 1117.73 -16.694 1116.38 -14.3427C1115.04 -11.9915 1114.29 -9.34563 1114.21 -6.63793C1114.12 -3.93022 1114.71 -1.24364 1115.91 1.18549C1121.87 14.2795 1131.76 25.1897 1144.21 32.3972C1154.77 38.4654 1166.74 41.6587 1178.93 41.6587C1191.11 41.6587 1203.08 38.4654 1213.64 32.3972C1226.14 25.2111 1236.08 14.2986 1242.08 1.18549C1243.94 -2.7956 1244.14 -7.35212 1242.64 -11.4817C1241.14 -15.6113 1238.06 -18.9756 1234.08 -20.8346C1230.09 -22.6936 1225.54 -22.895 1221.41 -21.3945C1217.28 -19.894 1213.91 -16.8144 1212.06 -12.8333C1209.11 -6.54635 1204.44 -1.22819 1198.59 2.49758C1192.73 6.22334 1185.93 8.20224 1178.99 8.20224C1172.05 8.20224 1165.25 6.22334 1159.4 2.49758C1153.54 -1.22819 1148.87 -6.54635 1145.93 -12.8333C1144.54 -15.9607 1142.22 -18.5814 1139.29 -20.3343C1136.35 -22.0871 1132.94 -22.8857 1129.53 -22.62ZM967.52 -20.7685C965.207 -20.6169 962.952 -19.9806 960.901 -18.9009C958.85 -17.8213 957.049 -16.3224 955.615 -14.5016C954.18 -12.6808 953.145 -10.5787 952.576 -8.33187C952.007 -6.08502 951.916 -3.7436 952.311 -1.45957C956.393 33.8937 968.7 67.7992 988.244 97.5405C1007.79 127.282 1034.03 152.032 1064.86 169.808C1099.56 189.767 1138.89 200.271 1178.93 200.271C1218.96 200.271 1258.29 189.767 1292.99 169.808C1323.83 152.032 1350.06 127.282 1369.61 97.5405C1389.15 67.7992 1401.46 33.8937 1405.54 -1.45957C1406 -3.67354 1406.01 -5.95891 1405.55 -8.17429C1405.1 -10.3897 1404.19 -12.4879 1402.89 -14.3392C1401.59 -16.1905 1399.93 -17.7555 1398 -18.9373C1396.07 -20.1191 1393.92 -20.8926 1391.68 -21.2099C1389.44 -21.5273 1387.16 -21.3817 1384.98 -20.7822C1382.8 -20.1827 1380.76 -19.142 1379 -17.7246C1377.24 -16.3072 1375.78 -14.5432 1374.73 -12.5417C1373.68 -10.5402 1373.05 -8.34379 1372.88 -6.08842C1369.47 24.2877 1358.97 53.4375 1342.22 79.0073C1325.47 104.577 1302.95 125.85 1276.46 141.109C1246.79 158.166 1213.16 167.142 1178.93 167.142C1144.7 167.142 1111.07 158.166 1081.39 141.109C1054.93 125.835 1032.43 104.555 1015.7 78.9862C998.98 53.4174 988.5 24.2755 985.109 -6.08842C984.61 -10.3096 982.504 -14.1763 979.228 -16.8854C975.953 -19.5944 971.76 -20.9377 967.52 -20.6362V-20.7685ZM1077.42 -10.9818C1074.84 -10.8053 1072.33 -10.0229 1070.1 -8.69773C1067.87 -7.37256 1065.98 -5.54177 1064.59 -3.35329C1063.2 -1.1648 1062.35 1.32003 1062.09 3.90047C1061.84 6.48091 1062.2 9.08461 1063.14 11.5012C1072.68 39.5288 1092.1 63.127 1117.76 77.8922C1136.37 88.5905 1157.46 94.2207 1178.93 94.2207C1200.39 94.2207 1221.48 88.5905 1240.09 77.8922C1265.81 63.0624 1285.23 39.3627 1294.71 11.2367C1295.64 9.15278 1296.12 6.89978 1296.14 4.61937C1296.15 2.33896 1295.69 0.0804768 1294.79 -2.01409C1293.89 -4.10866 1292.56 -5.994 1290.9 -7.55158C1289.23 -9.10916 1287.26 -10.3053 1285.11 -11.0647C1282.96 -11.8242 1280.68 -12.1306 1278.4 -11.9646C1276.13 -11.7986 1273.91 -11.1638 1271.9 -10.1002C1269.88 -9.03663 1268.1 -7.56718 1266.68 -5.78428C1265.26 -4.00138 1264.22 -1.94358 1263.63 0.25972C1256.72 20.9268 1242.46 38.3382 1223.56 49.1933C1209.98 57.0026 1194.59 61.1125 1178.93 61.1125C1163.26 61.1125 1147.87 57.0026 1134.29 49.1933C1115.39 38.3382 1101.13 20.9268 1094.22 0.25972C1093.08 -3.23266 1090.81 -6.2465 1087.77 -8.30606C1084.73 -10.3656 1081.09 -11.3536 1077.42 -11.114V-10.9818ZM1022.93 -9.92376C1020.5 -9.75308 1018.14 -9.04684 1016.01 -7.85563C1013.89 -6.66442 1012.05 -5.0177 1010.63 -3.03342C1009.22 -1.04913 1008.26 1.22362 1007.82 3.62207C1007.39 6.02052 1007.49 8.48532 1008.12 10.84C1013.44 34.4242 1023.59 56.6499 1037.93 76.1128C1052.27 95.5757 1070.49 111.853 1091.44 123.916C1118.09 139.207 1148.27 147.253 1178.99 147.253C1209.71 147.253 1239.9 139.207 1266.54 123.916C1287.49 111.853 1305.72 95.5757 1320.06 76.1128C1334.4 56.6499 1344.55 34.4242 1349.86 10.84C1350.92 6.57826 1350.23 2.0731 1347.96 -1.68443C1345.69 -5.44197 1342.02 -8.1441 1337.76 -9.19637C1333.5 -10.2486 1328.99 -9.56486 1325.24 -7.29545C1321.48 -5.02605 1318.78 -1.35692 1317.73 2.90478C1313.47 22.1508 1305.25 40.2989 1293.59 56.1926C1281.93 72.0862 1267.09 85.3768 1250.01 95.2173C1228.39 107.657 1203.87 114.204 1178.93 114.204C1153.98 114.204 1129.47 107.657 1107.84 95.2173C1090.78 85.3913 1075.94 72.1213 1064.28 56.2514C1052.63 40.3815 1044.4 22.2592 1040.13 3.03703C1039.28 -0.820835 1037.08 -4.24867 1033.93 -6.62604C1030.78 -9.00341 1026.88 -10.1732 1022.93 -9.92376ZM1436.89 14.4108C1433.39 14.4009 1429.99 15.4975 1427.16 17.5433C1424.32 19.589 1422.21 22.4788 1421.13 25.7981C1420.04 29.1174 1420.03 32.6956 1421.11 36.0195C1422.18 39.3434 1424.28 42.2421 1427.1 44.2999C1432.79 48.532 1438.34 53.0286 1443.5 57.922V15.7333C1441.51 14.8075 1439.27 14.2785 1436.89 14.2785V14.4108ZM392.087 14.4108C388.12 14.4108 384.417 15.7333 381.507 18.2461C352.972 39.4733 329.799 67.0811 313.839 98.8631C297.879 130.645 289.575 165.72 289.591 201.284C289.666 241.327 300.23 280.652 320.232 315.342C340.233 350.032 368.975 378.877 403.593 399.002C434.374 416.824 468.903 427.184 504.41 429.251C539.918 431.318 575.416 425.035 608.056 410.905C610.071 410.089 611.905 408.884 613.454 407.359C615.003 405.833 616.236 404.018 617.084 402.016C617.931 400.015 618.376 397.866 618.393 395.692C618.409 393.518 617.998 391.362 617.182 389.348C616.365 387.333 615.16 385.499 613.635 383.95C612.11 382.401 610.295 381.168 608.293 380.32C606.291 379.473 604.142 379.028 601.969 379.011C599.795 378.995 597.639 379.406 595.625 380.222C567.643 392.449 537.179 397.922 506.691 396.198C476.204 394.475 446.55 385.605 420.125 370.303C390.533 353.096 365.965 328.438 348.864 298.784C331.763 269.13 322.727 235.515 322.654 201.284C322.638 170.741 329.798 140.621 343.559 113.353C357.319 86.0845 377.294 62.4312 401.874 44.2999C404.706 42.2356 406.808 39.3249 407.878 35.9879C408.947 32.6509 408.929 29.0604 407.825 25.7345C406.722 22.4086 404.59 19.5195 401.737 17.4842C398.885 15.4488 395.459 14.3726 391.955 14.4108H392.087ZM-143.537 15.8656V58.0543C-123.699 76.3177 -107.872 98.5031 -97.0578 123.204C-86.2439 147.906 -80.6794 174.584 -80.717 201.549C-80.717 256.434 -104.126 308.409 -143.537 345.043V387.629C-113.934 366.448 -89.7981 338.524 -73.1252 306.167C-56.4522 273.81 -47.721 237.949 -47.6537 201.549C-47.6173 165.962 -55.9113 130.861 -71.872 99.0545C-87.8327 67.2479 -111.017 39.6188 -139.57 18.3784C-140.774 17.4028 -142.11 16.6014 -143.537 15.9978V15.8656ZM781.837 26.049C751.188 26.0365 721.079 34.1112 694.55 49.4578C667.967 64.9133 645.896 87.0626 630.535 113.7C615.175 140.338 607.06 170.535 606.998 201.284C606.972 225.452 611.953 249.364 621.627 271.511C631.3 293.659 645.458 313.562 663.206 329.966C665.517 332.258 668.454 333.816 671.647 334.445C674.84 335.075 678.149 334.748 681.157 333.505C684.165 332.262 686.739 330.159 688.557 327.459C690.375 324.759 691.356 321.583 691.376 318.328C691.376 313.435 689.392 309.07 686.086 306.161C671.548 292.837 659.947 276.629 652.023 258.572C644.099 240.514 640.025 221.004 640.062 201.284C640.121 176.347 646.708 151.86 659.168 130.259C671.627 108.657 689.525 90.6945 711.081 78.1567C728.123 68.2668 747.041 62.0413 766.625 59.8779C786.209 57.7145 806.029 59.6609 824.819 65.5927C829.028 66.8203 833.552 66.3256 837.397 64.2174C841.241 62.1092 844.09 58.5602 845.318 54.3512C846.546 50.1421 846.051 45.6177 843.943 41.7734C841.835 37.929 838.286 35.0796 834.077 33.852C817.162 28.5916 799.55 25.9164 781.837 25.9168V26.049ZM-10.8874 26.049C-28.6009 26.0486 -46.2129 28.7239 -63.1273 33.9842C-65.2114 34.5921 -67.1554 35.6045 -68.8483 36.9637C-70.5412 38.3228 -71.9497 40.0021 -72.9936 41.9056C-74.0375 43.8092 -74.6962 45.8997 -74.9322 48.0577C-75.1681 50.2159 -74.9767 52.3993 -74.3688 54.4834C-73.761 56.5675 -72.7485 58.5115 -71.3894 60.2044C-70.0302 61.8972 -68.3509 63.3058 -66.4474 64.3497C-64.5439 65.3936 -62.4534 66.0523 -60.2953 66.2882C-58.1372 66.5242 -55.9537 66.3328 -53.8696 65.7249C-35.0893 59.7734 -15.2739 57.8051 4.31023 59.9456C23.8944 62.0862 42.8167 68.2887 59.8679 78.1567C81.4433 90.7058 99.3537 108.69 111.815 130.316C124.275 151.943 130.851 176.457 130.888 201.416C130.906 221.114 126.823 240.599 118.899 258.632C110.976 276.666 99.3846 292.852 84.8637 306.161C83.1669 307.629 81.7866 309.427 80.8071 311.446C79.8275 313.464 79.2692 315.661 79.166 317.903C79.0629 320.144 79.4171 322.383 80.207 324.483C80.997 326.583 82.2062 328.501 83.7611 330.118C85.3159 331.736 87.1837 333.02 89.2509 333.893C91.318 334.766 93.5412 335.208 95.7849 335.194C98.0286 335.18 100.246 334.709 102.302 333.81C104.358 332.911 106.209 331.604 107.743 329.966C125.492 313.562 139.649 293.659 149.323 271.511C158.997 249.364 163.977 225.452 163.951 201.284C163.876 170.522 155.741 140.316 140.357 113.678C124.972 87.0387 102.875 64.8966 76.2673 49.4578C49.8284 34.1099 19.8156 25.9909 -10.7552 25.9168L-10.8874 26.049ZM1418.5 67.841C1415.18 67.8575 1411.94 68.8741 1409.21 70.7583C1406.47 72.6426 1404.37 75.3071 1403.17 78.4046C1401.97 81.5021 1401.73 84.8889 1402.48 88.1237C1403.24 91.3585 1404.95 94.2913 1407.39 96.5398C1423.27 111.169 1435.61 129.212 1443.5 149.309V86.3564C1439.34 81.5816 1434.92 77.0343 1430.27 72.7343C1428.73 71.1803 1426.9 69.9475 1424.88 69.1075C1422.86 68.2675 1420.69 67.837 1418.5 67.841ZM410.338 67.841C405.842 67.841 401.609 69.6925 398.7 72.7343C380.968 89.1235 366.821 109.005 357.147 131.129C347.474 153.252 342.484 177.138 342.492 201.284C342.531 232.056 350.635 262.28 365.997 288.943C381.359 315.606 403.442 337.776 430.044 353.243C450.954 365.36 474.152 373.004 498.169 375.69C522.187 378.376 546.5 376.047 569.571 368.849C572.765 368.024 575.639 366.263 577.824 363.791C580.009 361.32 581.405 358.251 581.831 354.98C582.258 351.709 581.696 348.385 580.218 345.436C578.74 342.486 576.414 340.047 573.538 338.43C571.545 337.307 569.341 336.609 567.064 336.382C564.788 336.154 562.489 336.401 560.313 337.108C541.524 343.04 521.703 344.986 502.119 342.823C482.535 340.659 463.617 334.434 446.575 324.544C425 311.995 407.09 294.011 394.629 272.385C382.168 250.758 375.592 226.244 375.556 201.284C375.538 181.587 379.62 162.102 387.544 144.068C395.468 126.035 407.059 109.849 421.58 96.5398C424.033 94.2837 425.746 91.3388 426.496 88.0915C427.246 84.8443 426.997 81.4462 425.781 78.3431C424.565 75.2399 422.44 72.5766 419.685 70.7025C416.929 68.8283 413.671 67.8309 410.338 67.841ZM784.614 78.9502C762.352 78.5049 740.394 84.1773 721.133 95.3496C702.569 106.128 687.15 121.578 676.408 140.162C665.666 158.747 659.974 179.819 659.899 201.284C659.899 232.231 671.273 260.533 690.185 281.958C691.552 283.734 693.265 285.213 695.221 286.306C697.177 287.399 699.335 288.083 701.563 288.316C703.791 288.55 706.044 288.328 708.184 287.664C710.324 287 712.306 285.908 714.011 284.454C715.716 283.001 717.108 281.215 718.102 279.207C719.095 277.199 719.671 275.01 719.792 272.773C719.914 270.536 719.58 268.297 718.81 266.193C718.04 264.089 716.85 262.164 715.313 260.533C700.804 244.211 692.802 223.123 692.83 201.284C692.83 169.543 710.023 139.919 737.532 124.048C756.424 113.082 778.693 109.456 800.088 113.865C802.224 114.256 804.416 114.222 806.539 113.765C808.662 113.309 810.675 112.439 812.462 111.205C814.249 109.97 815.775 108.396 816.953 106.572C818.132 104.748 818.94 102.71 819.33 100.574C819.721 98.4373 819.687 96.2451 819.231 94.1219C818.774 91.9987 817.904 89.9863 816.67 88.1994C815.436 86.4126 813.862 84.8863 812.038 83.7078C810.213 82.5292 808.175 81.7215 806.039 81.3308C798.982 79.9028 791.812 79.1062 784.614 78.9502ZM-13.797 78.9502C-20.9386 79.0825 -28.0803 79.876 -35.0897 81.3308C-37.2259 81.7215 -39.2643 82.5292 -41.0883 83.7078C-42.9124 84.8863 -44.4865 86.4126 -45.7207 88.1994C-46.9549 89.9863 -47.8251 91.9987 -48.2816 94.1219C-48.7381 96.2451 -48.7719 98.4373 -48.3811 100.574C-47.9903 102.71 -47.1826 104.748 -46.0041 106.572C-44.8256 108.396 -43.2993 109.97 -41.5125 111.205C-39.7256 112.439 -37.7132 113.309 -35.59 113.765C-33.4668 114.222 -31.2746 114.256 -29.1383 113.865C-7.78577 109.49 14.43 113.114 33.2851 124.048C46.8497 131.911 58.1157 143.192 65.9593 156.768C73.8028 170.343 77.9498 185.738 77.9866 201.416C77.9866 224.032 69.5224 244.795 55.5036 260.666C53.3913 263.044 52.0102 265.982 51.5258 269.126C51.0415 272.27 51.4745 275.487 52.7729 278.391C54.0713 281.295 56.18 283.762 58.846 285.498C61.512 287.233 64.622 288.163 67.8031 288.174C73.0932 288.174 77.7221 285.794 80.6316 281.958C100.257 259.669 111.073 230.983 111.05 201.284C110.975 179.819 105.283 158.747 94.5411 140.162C83.7988 121.578 68.3798 106.128 49.8167 95.3496C30.5554 84.1773 8.59769 78.5049 -13.6647 78.9502H-13.797ZM-143.537 86.3564V149.044C-130.25 182.604 -130.25 219.965 -143.537 253.524L-143.537 316.344C-115.849 284.402 -100.591 243.556 -100.555 201.284C-100.536 159.081 -115.805 118.3 -143.537 86.4886V86.3564ZM1390.33 114.526C1387.15 114.538 1384.04 115.467 1381.38 117.203C1378.71 118.938 1376.6 121.406 1375.3 124.31C1374 127.214 1373.57 130.431 1374.06 133.575C1374.54 136.719 1375.92 139.656 1378.03 142.035C1392.54 158.357 1400.54 179.445 1400.52 201.284C1400.52 233.025 1383.32 262.782 1355.81 278.652C1336.96 289.586 1314.74 293.211 1293.39 288.836C1291.25 288.436 1289.06 288.461 1286.93 288.91C1284.81 289.358 1282.79 290.221 1281 291.449C1279.2 292.677 1277.67 294.247 1276.48 296.067C1275.3 297.888 1274.48 299.925 1274.08 302.061C1273.68 304.197 1273.71 306.391 1274.16 308.518C1274.6 310.644 1275.47 312.661 1276.7 314.454C1277.92 316.247 1279.49 317.781 1281.31 318.968C1283.13 320.154 1285.17 320.97 1287.31 321.37C1315.48 326.924 1345.63 322.692 1372.35 307.351C1390.93 296.561 1406.36 281.091 1417.1 262.481C1427.85 243.872 1433.53 222.772 1433.58 201.284C1433.58 170.469 1422.07 142.167 1403.16 120.61C1401.62 118.724 1399.69 117.201 1397.49 116.149C1395.3 115.097 1392.9 114.543 1390.46 114.526H1390.33ZM438.508 114.526C433.35 114.526 428.721 116.907 425.812 120.61C406.186 142.9 395.37 171.586 395.394 201.284C395.432 222.759 401.093 243.85 411.812 262.458C422.532 281.067 437.937 296.544 456.494 307.351C482.181 322.243 512.426 327.229 541.533 321.37C543.669 320.979 545.708 320.171 547.532 318.993C549.356 317.814 550.93 316.288 552.164 314.501C553.398 312.714 554.268 310.702 554.725 308.579C555.181 306.456 555.215 304.263 554.825 302.127C554.434 299.991 553.626 297.952 552.447 296.128C551.269 294.304 549.743 292.73 547.956 291.496C546.169 290.262 544.157 289.392 542.033 288.935C539.91 288.479 537.718 288.445 535.582 288.836C514.187 293.244 491.918 289.619 473.026 278.652C459.486 270.773 448.247 259.484 440.427 245.91C432.607 232.336 428.48 216.95 428.457 201.284C428.457 178.669 436.921 157.905 450.94 142.035C453.06 139.648 454.443 136.698 454.923 133.542C455.402 130.386 454.958 127.159 453.643 124.25C452.329 121.341 450.2 118.874 447.514 117.149C444.828 115.424 441.7 114.513 438.508 114.526ZM783.556 131.851C771.256 131.587 758.825 134.496 747.583 141.109C737.036 147.229 728.276 156.004 722.173 166.562C716.071 177.119 712.84 189.09 712.801 201.284C712.746 215.681 717.184 229.735 725.497 241.489C728.005 245.102 731.845 247.57 736.173 248.352C740.501 249.133 744.962 248.163 748.575 245.655C752.188 243.147 754.656 239.307 755.438 234.979C756.219 230.651 755.249 226.19 752.741 222.577C749.761 218.446 747.679 213.736 746.628 208.752C745.577 203.767 745.581 198.618 746.64 193.635C747.699 188.653 749.789 183.947 752.776 179.82C755.763 175.694 759.58 172.238 763.983 169.676C770.589 165.877 778.224 164.257 785.804 165.047C787.985 165.274 790.189 165.064 792.288 164.431C794.387 163.798 796.339 162.754 798.031 161.359C799.723 159.964 801.12 158.247 802.142 156.307C803.163 154.367 803.789 152.243 803.982 150.059C804.175 147.875 803.931 145.674 803.266 143.585C802.6 141.496 801.525 139.56 800.105 137.891C798.684 136.221 796.945 134.85 794.989 133.859C793.034 132.867 790.901 132.275 788.714 132.116C786.953 131.975 785.189 131.886 783.424 131.851H783.556ZM-12.6067 131.851L-17.8968 132.116C-20.0678 132.307 -22.1799 132.924 -24.1125 133.931C-26.0451 134.938 -27.7603 136.316 -29.1603 137.987C-31.9878 141.36 -33.3595 145.718 -32.9737 150.102C-32.5878 154.487 -30.4761 158.538 -27.103 161.366C-23.7299 164.193 -19.3717 165.565 -14.9873 165.179C-8.05106 164.562 -1.08305 165.942 5.09453 169.156C11.2721 172.37 16.4015 177.283 19.8773 183.318C23.3532 189.352 25.0305 196.254 24.7113 203.21C24.3921 210.167 22.0898 216.886 18.076 222.577C16.8342 224.366 15.9569 226.382 15.4942 228.51C15.0315 230.638 14.9925 232.836 15.3793 234.979C16.1606 239.307 18.6292 243.147 22.2419 245.655C25.8547 248.163 30.3158 249.133 34.6438 248.352C38.9718 247.57 42.8122 245.102 45.3201 241.489C53.6801 229.751 58.1651 215.695 58.1486 201.284C58.1134 189.123 54.8966 177.182 48.818 166.649C42.7393 156.116 34.0104 147.357 23.4984 141.241C12.5784 134.927 0.13707 131.725 -12.4745 131.984L-12.6067 131.851ZM1354.1 153.805C1351.06 153.817 1348.08 154.665 1345.5 156.256C1342.91 157.847 1340.81 160.12 1339.43 162.825C1338.05 165.53 1337.44 168.564 1337.67 171.592C1337.9 174.62 1338.96 177.526 1340.74 179.991C1343.72 184.123 1345.8 188.832 1346.85 193.817C1347.9 198.801 1347.9 203.95 1346.84 208.933C1345.78 213.916 1343.69 218.622 1340.7 222.748C1337.72 226.874 1333.9 230.33 1329.5 232.893C1322.85 236.719 1315.17 238.34 1307.54 237.521C1305.37 237.339 1303.19 237.586 1301.11 238.248C1299.03 238.911 1297.11 239.975 1295.45 241.382C1292.09 244.221 1289.99 248.28 1289.62 252.664C1289.25 257.049 1290.64 261.4 1293.48 264.761C1296.32 268.121 1300.38 270.216 1304.76 270.585C1318.65 271.775 1332.93 268.998 1345.9 261.459C1356.44 255.339 1365.2 246.564 1371.31 236.007C1377.41 225.449 1380.64 213.478 1380.68 201.284C1380.69 186.873 1376.21 172.817 1367.85 161.079C1366.33 158.831 1364.28 156.992 1361.88 155.723C1359.48 154.454 1356.81 153.796 1354.1 153.805ZM474.745 153.805C469.058 153.805 464.165 156.715 460.991 161.079C452.678 172.833 448.24 186.888 448.295 201.284C448.295 226.015 461.52 249.16 482.945 261.459C495.422 268.694 509.852 271.839 524.208 270.452C526.395 270.293 528.528 269.701 530.484 268.709C532.439 267.718 534.178 266.348 535.599 264.678C537.02 263.008 538.094 261.072 538.76 258.983C539.425 256.894 539.669 254.693 539.476 252.509C539.283 250.325 538.657 248.202 537.636 246.262C536.614 244.322 535.217 242.604 533.525 241.21C531.834 239.815 529.881 238.77 527.782 238.137C525.683 237.504 523.479 237.295 521.298 237.521C514.362 238.139 507.394 236.759 501.217 233.545C495.039 230.331 489.91 225.417 486.434 219.383C482.958 213.349 481.281 206.447 481.6 199.49C481.919 192.534 484.221 185.814 488.235 180.124C490.053 177.649 491.146 174.717 491.391 171.657C491.636 168.596 491.024 165.528 489.624 162.796C488.223 160.063 486.09 157.775 483.462 156.187C480.834 154.599 477.816 153.774 474.745 153.805ZM517.728 184.753C513.343 184.753 509.138 186.494 506.038 189.595C502.938 192.695 501.196 196.9 501.196 201.284C501.196 205.669 502.938 209.874 506.038 212.974C509.138 216.074 513.343 217.816 517.728 217.816C522.112 217.816 526.317 216.074 529.417 212.974C532.517 209.874 534.259 205.669 534.259 201.284C534.259 196.9 532.517 192.695 529.417 189.595C526.317 186.494 522.112 184.753 517.728 184.753ZM782.233 184.753C777.849 184.753 773.644 186.494 770.544 189.595C767.444 192.695 765.702 196.9 765.702 201.284C765.702 205.669 767.444 209.874 770.544 212.974C773.644 216.074 777.849 217.816 782.233 217.816C786.618 217.816 790.823 216.074 793.923 212.974C797.023 209.874 798.765 205.669 798.765 201.284C798.765 196.9 797.023 192.695 793.923 189.595C790.823 186.494 786.618 184.753 782.233 184.753ZM-12.4745 184.753C-14.6454 184.909 -16.7643 185.491 -18.7102 186.466C-20.6561 187.442 -22.3909 188.791 -23.8155 190.436C-25.24 192.082 -26.3265 193.992 -27.0129 196.057C-27.6993 198.123 -27.9721 200.303 -27.8158 202.474C-27.6595 204.645 -27.0771 206.764 -26.1019 208.71C-25.1267 210.656 -23.7778 212.391 -22.1321 213.815C-20.4865 215.24 -18.5764 216.327 -16.5109 217.013C-14.4454 217.699 -12.2649 217.972 -10.0939 217.816C-5.70944 217.5 -1.62996 215.456 1.2471 212.132C4.12415 208.809 5.56313 204.478 5.24744 200.094C4.93176 195.709 2.88728 191.63 -0.436218 188.753C-3.7597 185.876 -8.09 184.437 -12.4745 184.753ZM1312.44 184.753C1310.26 184.596 1308.08 184.869 1306.02 185.555C1303.95 186.242 1302.04 187.328 1300.4 188.753C1298.75 190.177 1297.4 191.912 1296.43 193.858C1295.45 195.804 1294.87 197.923 1294.71 200.094C1294.56 202.265 1294.83 204.445 1295.52 206.511C1296.2 208.576 1297.29 210.487 1298.71 212.132C1300.14 213.778 1301.87 215.127 1303.82 216.102C1305.77 217.077 1307.88 217.659 1310.05 217.816C1314.44 218.131 1318.77 216.693 1322.09 213.815C1325.42 210.938 1327.46 206.859 1327.78 202.474C1328.09 198.09 1326.65 193.76 1323.78 190.436C1320.9 187.113 1316.82 185.068 1312.44 184.753ZM914.486 202.342C858.553 202.296 804.557 222.824 762.78 260.016C721.003 297.207 694.365 348.465 687.937 404.028C687.381 407.135 687.727 410.336 688.932 413.253C690.138 416.17 692.153 418.681 694.74 420.489C697.327 422.297 700.378 423.327 703.531 423.456C706.685 423.586 709.809 422.81 712.536 421.221C714.772 419.906 716.668 418.084 718.069 415.901C719.471 413.719 720.339 411.237 720.604 408.657C723.994 378.293 734.474 349.151 751.199 323.582C767.923 298.013 790.423 276.733 816.884 261.459C846.56 244.402 880.191 235.426 914.42 235.426C948.649 235.426 982.28 244.402 1011.96 261.459C1038.42 276.733 1060.92 298.013 1077.64 323.582C1094.37 349.151 1104.85 378.293 1108.24 408.657C1108.85 413.006 1111.17 416.934 1114.68 419.575C1118.19 422.216 1122.6 423.356 1126.95 422.742C1131.3 422.128 1135.23 419.811 1137.87 416.302C1140.51 412.792 1141.65 408.377 1141.04 404.028C1134.61 348.465 1107.97 297.207 1066.19 260.016C1024.42 222.824 970.42 202.296 914.486 202.342ZM1443.5 253.26C1431.72 283.253 1410.14 308.377 1382.27 324.544C1365.21 334.412 1346.29 340.614 1326.71 342.755C1307.12 344.896 1287.31 342.927 1268.53 336.976C1265.35 335.999 1261.96 336.001 1258.78 336.982C1255.61 337.963 1252.81 339.877 1250.74 342.475C1248.67 345.073 1247.43 348.234 1247.18 351.547C1246.93 354.859 1247.69 358.169 1249.35 361.046C1250.43 362.946 1251.87 364.614 1253.6 365.953C1255.32 367.292 1257.29 368.276 1259.4 368.849C1291.88 378.965 1326.6 379.372 1359.31 370.021C1392.02 360.67 1421.28 341.967 1443.5 316.212V253.26ZM914.486 255.243C874.731 255.177 836.14 268.662 805.078 293.473C774.016 318.285 752.336 352.941 743.616 391.728C742.796 394.877 742.924 398.197 743.983 401.273C745.043 404.349 746.986 407.044 749.57 409.021C752.154 410.998 755.263 412.168 758.509 412.386C761.755 412.603 764.993 411.858 767.818 410.244C769.798 409.121 771.524 407.602 772.89 405.782C774.255 403.961 775.23 401.878 775.753 399.664C780.01 380.418 788.229 362.269 799.888 346.376C811.546 330.482 826.388 317.192 843.466 307.351C865.077 294.936 889.564 288.403 914.486 288.403C939.409 288.403 963.896 294.936 985.506 307.351C1002.59 317.192 1017.43 330.482 1029.09 346.376C1040.74 362.269 1048.96 380.418 1053.22 399.664C1053.96 402.901 1055.65 405.841 1058.08 408.102C1060.51 410.363 1063.57 411.839 1066.85 412.339C1070.13 412.838 1073.49 412.338 1076.49 410.903C1079.48 409.468 1081.97 407.164 1083.64 404.292C1086.02 400.325 1086.42 395.828 1085.36 391.728C1076.66 352.917 1054.99 318.23 1023.93 293.393C992.865 268.555 954.26 255.052 914.486 255.111V255.243ZM914.486 308.145C888.904 308.085 863.951 316.074 843.159 330.979C822.367 345.885 806.79 366.952 798.633 391.199C797.903 393.249 797.585 395.422 797.695 397.594C797.805 399.767 798.343 401.896 799.276 403.861C800.209 405.826 801.521 407.588 803.135 409.046C804.749 410.504 806.635 411.63 808.684 412.36C810.733 413.089 812.906 413.408 815.079 413.298C817.251 413.187 819.381 412.65 821.346 411.717C823.311 410.783 825.073 409.472 826.531 407.858C827.989 406.244 829.115 404.358 829.844 402.309C836.7 381.614 850.912 364.155 869.785 353.243C883.365 345.433 898.755 341.324 914.42 341.324C930.085 341.324 945.476 345.433 959.056 353.243C977.953 364.098 992.212 381.509 999.128 402.176C1000.58 406.315 1003.62 409.706 1007.58 411.604C1011.54 413.501 1016.08 413.749 1020.22 412.294C1024.36 410.838 1027.75 407.798 1029.65 403.842C1031.55 399.886 1031.8 395.338 1030.34 391.199C1022.2 366.928 1006.64 345.831 985.844 330.901C965.05 315.97 940.085 307.962 914.486 308.012V308.145ZM1443.5 344.779C1415.7 370.503 1380.99 387.558 1343.64 393.854C1306.29 400.149 1267.91 395.412 1233.22 380.222C1230.03 378.844 1226.49 378.504 1223.1 379.252C1219.7 380 1216.63 381.796 1214.32 384.387C1212.01 386.978 1210.57 390.231 1210.21 393.686C1209.85 397.14 1210.59 400.62 1212.32 403.631C1214.25 406.987 1217.29 409.561 1220.92 410.905C1256.9 426.488 1296.3 432.509 1335.3 428.385C1374.3 424.26 1411.57 410.13 1443.5 387.364V344.779ZM914.486 361.178C901.216 361.17 888.221 364.965 877.041 372.114C865.86 379.263 856.963 389.466 851.402 401.515C850.473 403.478 849.939 405.604 849.832 407.773C849.724 409.941 850.045 412.11 850.776 414.155C851.506 416.2 852.633 418.08 854.09 419.69C855.548 421.299 857.308 422.606 859.271 423.535C861.233 424.464 863.36 424.998 865.528 425.105C867.697 425.213 869.866 424.892 871.911 424.161C873.955 423.43 875.836 422.304 877.446 420.847C879.055 419.389 880.362 417.629 881.291 415.666C884.333 408.921 889.491 402.97 896.235 399.002C900.653 396.467 905.552 394.885 910.619 394.357C915.684 393.829 920.805 394.367 925.65 395.936C930.496 397.506 934.959 400.072 938.754 403.47C942.548 406.868 945.589 411.022 947.682 415.666C948.95 418.425 950.953 420.781 953.471 422.476C955.99 424.171 958.926 425.14 961.959 425.277C964.991 425.413 968.003 424.712 970.664 423.25C973.325 421.788 975.531 419.622 977.042 416.989C979.819 412.095 979.952 406.408 977.571 401.515C972.036 389.446 963.145 379.225 951.959 372.072C940.773 364.919 927.764 361.137 914.486 361.178ZM386.665 414.079C384.494 413.923 382.313 414.196 380.248 414.882C378.182 415.568 376.272 416.655 374.627 418.079C372.981 419.504 371.632 421.239 370.657 423.185C369.682 425.131 369.099 427.25 368.943 429.421C368.787 431.591 369.06 433.772 369.746 435.837C370.432 437.903 371.519 439.813 372.943 441.459C374.368 443.104 376.103 444.453 378.049 445.428C379.994 446.404 382.113 446.986 384.284 447.142C388.669 447.458 392.999 446.019 396.323 443.142C399.646 440.265 401.691 436.185 402.006 431.801C402.322 427.417 400.883 423.086 398.006 419.763C395.129 416.439 391.049 414.395 386.665 414.079ZM913.296 414.079C911.052 414.122 908.84 414.622 906.795 415.548C904.75 416.474 902.916 417.806 901.402 419.464C899.89 421.122 898.73 423.071 897.995 425.192C897.259 427.313 896.963 429.561 897.125 431.8C897.287 434.038 897.903 436.221 898.936 438.214C899.969 440.207 901.396 441.968 903.132 443.392C904.868 444.815 906.875 445.87 909.032 446.492C911.189 447.114 913.449 447.29 915.677 447.01C920.061 446.694 924.141 444.65 927.018 441.326C929.895 438.003 931.334 433.673 931.018 429.288C930.702 424.904 928.658 420.824 925.334 417.947C922.011 415.07 917.681 413.631 913.296 413.947V414.079ZM780.514 431.537C750.04 431.756 719.916 438.051 691.905 450.052C687.818 451.683 684.547 454.87 682.811 458.913C681.075 462.956 681.016 467.523 682.647 471.609C684.278 475.695 687.465 478.967 691.508 480.703C695.551 482.439 700.118 482.498 704.204 480.867C732.185 468.64 762.65 463.168 793.137 464.891C823.624 466.614 853.279 475.484 879.704 490.786C909.32 507.977 933.915 532.628 951.04 562.282C968.164 591.937 977.221 625.561 977.307 659.805C977.308 690.36 970.127 720.487 956.343 747.756C942.559 775.025 922.559 798.672 897.955 816.789C894.482 819.508 892.232 823.494 891.699 827.872C891.165 832.249 892.393 836.659 895.111 840.132C897.83 843.604 901.816 845.855 906.194 846.388C910.571 846.921 914.981 845.694 918.454 842.975C947.006 821.735 970.191 794.106 986.151 762.299C1002.11 730.493 1010.41 695.392 1010.37 659.805C1010.28 619.749 999.698 580.415 979.672 545.724C959.646 511.033 930.878 482.196 896.235 462.087C861.131 441.749 821.215 431.199 780.646 431.537H780.514ZM-9.5649 431.537C-57.576 431.108 -104.485 445.926 -143.537 473.857L-143.537 516.443C-115.735 490.718 -81.0316 473.663 -43.6807 467.368C-6.32983 461.072 32.0464 465.809 66.745 480.999C69.9481 482.41 73.5164 482.768 76.9359 482.022C80.3555 481.275 83.4499 479.463 85.7734 476.845C88.0969 474.227 89.5297 470.94 89.8653 467.456C90.2009 463.972 89.4221 460.471 87.641 457.458C85.7001 454.144 82.6579 451.617 79.0446 450.316C51.0504 438.228 20.9264 431.843 -9.5649 431.537ZM336.012 435.769C333.31 435.966 330.698 436.823 328.406 438.267C326.113 439.71 324.211 441.695 322.865 444.046C321.52 446.397 320.773 449.043 320.69 451.751C320.607 454.458 321.191 457.145 322.39 459.574C328.376 472.692 338.319 483.607 350.824 490.786C361.372 496.83 373.318 500.009 385.475 500.009C397.631 500.009 409.577 496.83 420.125 490.786C432.63 483.607 442.573 472.692 448.559 459.574C449.624 457.595 450.273 455.419 450.469 453.181C450.664 450.942 450.401 448.687 449.695 446.553C448.99 444.419 447.856 442.452 446.365 440.771C444.873 439.09 443.054 437.731 441.02 436.777C438.985 435.822 436.777 435.293 434.531 435.221C432.285 435.149 430.048 435.535 427.956 436.357C425.864 437.178 423.962 438.418 422.365 439.999C420.769 441.581 419.511 443.471 418.67 445.555C415.745 451.879 411.071 457.234 405.201 460.986C399.33 464.739 392.508 466.733 385.541 466.733C378.573 466.733 371.751 464.739 365.881 460.986C360.01 457.234 355.336 451.879 352.411 445.555C351.026 442.428 348.705 439.807 345.768 438.054C342.831 436.302 339.422 435.503 336.012 435.769ZM174.002 437.752C171.701 437.922 169.46 438.571 167.425 439.658C165.39 440.745 163.604 442.247 162.184 444.065C160.764 445.884 159.741 447.98 159.179 450.218C158.618 452.457 158.531 454.788 158.925 457.061C163.004 492.399 175.294 526.293 194.814 556.032C214.334 585.771 240.541 610.53 271.34 628.329C306.059 648.312 345.416 658.829 385.475 658.829C425.533 658.829 464.89 648.312 499.609 628.329C530.408 610.53 556.616 585.771 576.135 556.032C595.655 526.293 607.945 492.399 612.024 457.061C612.487 454.847 612.49 452.562 612.034 450.347C611.578 448.131 610.673 446.033 609.373 444.182C608.074 442.33 606.408 440.765 604.48 439.584C602.551 438.402 600.401 437.628 598.161 437.311C595.922 436.994 593.641 437.139 591.46 437.739C589.279 438.338 587.245 439.379 585.482 440.796C583.719 442.214 582.266 443.978 581.213 445.979C580.159 447.981 579.528 450.177 579.357 452.432C575.967 482.796 565.487 511.938 548.762 537.507C532.038 563.076 509.538 584.356 483.077 599.63C455.024 615.884 423.36 624.885 390.951 625.817C358.542 626.75 326.413 619.584 297.472 604.969C268.531 590.354 243.692 568.751 225.204 542.117C206.716 515.482 195.164 484.657 191.592 452.432C191.092 448.211 188.986 444.345 185.711 441.636C182.435 438.926 178.242 437.583 174.002 437.885V437.752ZM284.037 447.539C281.438 447.696 278.914 448.464 276.669 449.781C274.423 451.098 272.521 452.926 271.116 455.118C269.711 457.309 268.843 459.801 268.584 462.391C268.324 464.981 268.679 467.596 269.621 470.022C279.141 498.17 298.611 521.872 324.374 536.678C342.968 547.352 364.034 552.968 385.475 552.968C406.915 552.968 427.981 547.352 446.575 536.678C472.338 521.872 491.808 498.17 501.328 470.022C502.058 467.973 502.376 465.8 502.266 463.627C502.156 461.455 501.618 459.325 500.685 457.36C499.752 455.395 498.44 453.633 496.826 452.175C495.212 450.717 493.326 449.591 491.277 448.862C489.228 448.132 487.055 447.814 484.882 447.924C482.71 448.034 480.58 448.571 478.615 449.505C476.65 450.438 474.888 451.749 473.43 453.364C471.972 454.978 470.846 456.864 470.117 458.913C463.233 479.558 449.024 496.967 430.176 507.846C416.581 515.68 401.165 519.804 385.475 519.804C369.784 519.804 354.368 515.68 340.773 507.846C321.925 496.967 307.716 479.558 300.833 458.913C299.695 455.421 297.426 452.407 294.384 450.347C291.343 448.288 287.702 447.3 284.037 447.539ZM229.416 448.597C226.97 448.764 224.592 449.472 222.453 450.671C220.315 451.87 218.469 453.53 217.052 455.53C215.634 457.531 214.679 459.821 214.255 462.236C213.832 464.651 213.951 467.13 214.604 469.493C219.936 493.054 230.093 515.253 244.433 534.693C258.773 554.132 276.986 570.388 297.923 582.437C324.584 597.753 354.794 605.812 385.541 605.812C416.288 605.812 446.497 597.753 473.158 582.437C494.085 570.36 512.281 554.077 526.599 534.615C540.917 515.152 551.045 492.934 556.345 469.361C557.165 466.212 557.037 462.892 555.977 459.816C554.918 456.74 552.975 454.045 550.391 452.068C547.807 450.091 544.698 448.921 541.452 448.703C538.206 448.486 534.968 449.231 532.143 450.845C530.163 451.968 528.437 453.487 527.071 455.307C525.706 457.128 524.731 459.211 524.208 461.426C519.951 480.672 511.732 498.82 500.073 514.713C488.415 530.607 473.573 543.898 456.494 553.738C434.884 566.153 410.397 572.686 385.475 572.686C360.552 572.686 336.065 566.153 314.455 553.738C297.39 543.912 282.557 530.642 270.9 514.772C259.242 498.902 251.015 480.78 246.741 461.558C245.893 457.676 243.675 454.23 240.494 451.85C237.312 449.469 233.38 448.315 229.416 448.597ZM1185.6 472.799C1181.64 472.799 1177.93 474.254 1175.02 476.635C1146.49 497.862 1123.32 525.47 1107.36 557.252C1091.4 589.034 1083.09 624.109 1083.11 659.673C1083.18 699.716 1093.75 739.041 1113.75 773.731C1133.75 808.421 1162.49 837.265 1197.11 857.391C1227.89 875.212 1262.42 885.572 1297.93 887.639C1333.44 889.706 1368.93 883.423 1401.57 869.294C1403.63 868.518 1405.52 867.339 1407.11 865.826C1408.71 864.313 1409.99 862.497 1410.87 860.483C1411.76 858.469 1412.24 856.299 1412.27 854.1C1412.31 851.9 1411.91 849.715 1411.09 847.673C1410.27 845.631 1409.05 843.773 1407.51 842.208C1405.96 840.643 1404.12 839.402 1402.09 838.558C1400.05 837.714 1397.87 837.284 1395.67 837.293C1393.47 837.302 1391.3 837.75 1389.27 838.611C1361.29 850.879 1330.8 856.386 1300.29 854.686C1269.78 852.985 1240.09 844.126 1213.64 828.824C1184.03 811.605 1159.45 786.926 1142.35 757.248C1125.25 727.569 1116.22 693.926 1116.17 659.673C1116.16 629.129 1123.32 599.009 1137.08 571.741C1150.84 544.473 1170.81 520.82 1195.39 502.689C1198.21 500.631 1200.31 497.732 1201.38 494.408C1202.46 491.084 1202.45 487.506 1201.36 484.187C1200.28 480.867 1198.17 477.978 1195.33 475.932C1192.5 473.886 1189.1 472.79 1185.6 472.799ZM643.368 472.799C639.84 472.75 636.389 473.83 633.519 475.882C630.649 477.935 628.511 480.851 627.417 484.206C626.324 487.56 626.332 491.176 627.441 494.526C628.55 497.875 630.702 500.782 633.581 502.821C658.161 520.952 678.136 544.605 691.896 571.874C705.657 599.142 712.817 629.262 712.801 659.805C712.715 694.049 703.659 727.673 686.534 757.328C669.409 786.982 644.814 811.633 615.198 828.824C588.773 844.126 559.118 852.996 528.631 854.719C498.144 856.442 467.679 850.97 439.698 838.743C436.511 837.365 432.97 837.025 429.578 837.773C426.187 838.521 423.117 840.317 420.804 842.908C418.491 845.499 417.053 848.752 416.694 852.207C416.335 855.661 417.072 859.141 418.802 862.152C420.687 865.492 423.682 868.065 427.267 869.426C459.907 883.555 495.405 889.839 530.912 887.772C566.42 885.705 600.949 875.345 631.73 857.523C666.373 837.414 695.14 808.577 715.166 773.886C735.192 739.195 745.776 699.861 745.864 659.805C745.9 624.219 737.606 589.117 721.646 557.311C705.685 525.504 682.501 497.875 653.948 476.635C650.966 474.196 647.22 472.885 643.368 472.932V472.799ZM1443.5 473.725C1413.9 494.906 1389.76 522.83 1373.09 555.187C1356.41 587.544 1347.68 623.405 1347.61 659.805C1347.58 695.392 1355.87 730.493 1371.83 762.299C1387.79 794.106 1410.98 821.735 1439.53 842.975C1440.85 844.033 1442.18 844.827 1443.5 845.356V803.299C1423.67 785.031 1407.84 762.845 1397.03 738.145C1386.22 713.444 1380.65 686.768 1380.68 659.805C1380.68 605.052 1404.09 552.945 1443.5 516.443V473.725ZM782.63 484.305C764.917 484.305 747.305 486.98 730.39 492.241C728.306 492.849 726.362 493.861 724.669 495.22C722.976 496.579 721.568 498.258 720.524 500.162C718.416 504.006 717.921 508.531 719.149 512.74C720.376 516.949 723.226 520.498 727.07 522.606C730.914 524.714 735.439 525.209 739.648 523.981C758.437 518.05 778.258 516.103 797.842 518.267C817.426 520.43 836.344 526.656 853.385 536.545C874.936 549.111 892.82 567.102 905.257 588.727C917.694 610.353 924.25 634.858 924.273 659.805C924.291 679.502 920.208 698.988 912.285 717.021C904.361 735.054 892.77 751.24 878.249 764.549C876.552 766.017 875.172 767.816 874.192 769.834C873.213 771.853 872.654 774.05 872.551 776.291C872.448 778.533 872.802 780.772 873.592 782.872C874.382 784.972 875.592 786.889 877.146 788.507C878.701 790.125 880.569 791.409 882.636 792.282C884.703 793.154 886.927 793.597 889.17 793.583C891.414 793.568 893.631 793.098 895.687 792.199C897.743 791.3 899.595 789.992 901.129 788.355C918.885 771.977 933.057 752.101 942.753 729.977C952.449 707.853 957.46 683.961 957.469 659.805C957.417 629.02 949.293 598.788 933.907 572.124C918.521 545.459 896.412 523.297 869.785 507.846C843.292 492.528 813.233 484.455 782.63 484.438V484.305ZM-11.6809 484.438C-36.7113 484.446 -61.4459 489.849 -84.1998 500.279C-106.954 510.709 -127.192 525.92 -143.537 544.877L-143.537 607.962C-131.785 577.919 -110.201 552.745 -82.304 536.545C-65.2528 526.677 -46.3305 520.475 -26.7463 518.334C-7.16219 516.194 12.6532 518.162 31.4335 524.114C33.5515 524.832 35.7933 525.114 38.0232 524.941C40.2531 524.768 42.4248 524.144 44.4067 523.108C46.3887 522.071 48.1397 520.643 49.5537 518.911C50.9678 517.178 52.0155 515.176 52.6335 513.026C53.2515 510.877 53.4269 508.624 53.1491 506.405C52.8712 504.186 52.146 502.046 51.0172 500.115C49.8883 498.184 48.3795 496.503 46.5818 495.172C44.7842 493.841 42.7353 492.889 40.559 492.373C23.6446 487.112 6.03259 484.437 -11.6809 484.438ZM1203.86 526.23C1199.36 526.23 1195.13 528.081 1192.22 531.123C1174.49 547.512 1160.34 567.394 1150.66 589.517C1140.99 611.641 1136 635.527 1136.01 659.673C1136.05 690.445 1144.15 720.669 1159.51 747.332C1174.88 773.995 1196.96 796.165 1223.56 811.631C1244.47 823.749 1267.67 831.393 1291.69 834.079C1315.7 836.765 1340.02 834.436 1363.09 827.237C1367.3 826.01 1370.85 823.16 1372.95 819.316C1375.06 815.472 1375.56 810.947 1374.33 806.738C1373.1 802.529 1370.25 798.98 1366.41 796.872C1362.56 794.764 1358.04 794.269 1353.83 795.497C1335.04 801.42 1315.22 803.362 1295.64 801.199C1276.05 799.036 1257.14 792.815 1240.09 782.933C1218.54 770.395 1200.64 752.432 1188.18 730.831C1175.72 709.229 1169.13 684.742 1169.07 659.805C1169.06 640.108 1173.14 620.622 1181.06 602.589C1188.99 584.556 1200.58 568.37 1215.1 555.061C1217.55 552.805 1219.26 549.86 1220.01 546.612C1220.76 543.365 1220.51 539.967 1219.3 536.864C1218.08 533.761 1215.96 531.098 1213.2 529.223C1210.45 527.349 1207.19 526.352 1203.86 526.362V526.23ZM624.985 526.23C621.634 526.217 618.359 527.222 615.593 529.113C612.826 531.004 610.7 533.691 609.495 536.817C608.291 539.944 608.064 543.362 608.847 546.621C609.629 549.879 611.383 552.822 613.875 555.061C628.396 568.37 639.987 584.556 647.911 602.589C655.835 620.622 659.918 640.108 659.899 659.805C659.84 684.742 653.253 709.229 640.793 730.831C628.334 752.432 610.436 770.395 588.88 782.933C571.838 792.822 552.92 799.048 533.336 801.211C513.752 803.375 493.931 801.428 475.142 795.497C473.058 794.889 470.875 794.697 468.716 794.933C466.558 795.169 464.468 795.828 462.564 796.872C460.661 797.916 458.982 799.324 457.622 801.017C456.263 802.71 455.251 804.654 454.643 806.738C454.035 808.822 453.844 811.006 454.08 813.164C454.316 815.322 454.974 817.412 456.018 819.316C457.062 821.219 458.471 822.899 460.163 824.258C461.856 825.617 463.8 826.629 465.884 827.237C488.935 834.416 513.225 836.736 537.218 834.05C561.211 831.364 584.386 823.73 605.279 811.631C631.886 796.193 653.984 774.051 669.368 747.412C684.753 720.773 692.888 690.567 692.963 659.805C692.989 635.637 688.008 611.726 678.334 589.578C668.66 567.431 654.503 547.527 636.755 531.123C635.235 529.579 633.423 528.351 631.426 527.511C629.428 526.672 627.284 526.236 625.117 526.23H624.985ZM779.721 537.339C772.579 537.471 765.437 538.397 758.428 539.719C755.041 540.244 751.901 541.807 749.442 544.195C746.983 546.582 745.326 549.674 744.702 553.044C744.077 556.413 744.515 559.894 745.956 563.004C747.396 566.114 749.767 568.699 752.741 570.402C756.444 572.518 760.544 573.047 764.379 572.254C785.732 567.879 807.948 571.503 826.803 582.437C840.367 590.299 851.633 601.581 859.477 615.156C867.32 628.732 871.467 644.127 871.504 659.805C871.504 682.553 863.04 703.316 849.021 719.054C846.909 721.433 845.528 724.37 845.043 727.514C844.559 730.658 844.992 733.875 846.291 736.779C847.589 739.683 849.698 742.151 852.364 743.886C855.03 745.622 858.14 746.551 861.321 746.563C866.611 746.563 871.24 744.182 874.149 740.479C893.775 718.189 904.591 689.503 904.567 659.805C904.516 638.317 898.835 617.218 888.091 598.608C877.348 579.999 861.917 564.528 843.334 553.738C824.073 542.566 802.115 536.894 779.853 537.339H779.721ZM-8.77138 537.339C-31.1035 536.949 -53.1119 542.715 -72.385 554.003C-90.9289 564.77 -106.335 580.199 -117.077 598.758C-127.818 617.317 -133.52 638.362 -133.618 659.805C-133.618 690.752 -122.112 718.922 -103.2 740.479C-101.025 743.088 -98.0991 744.963 -94.8207 745.85C-91.5422 746.737 -88.0702 746.592 -84.8767 745.436C-81.6832 744.28 -78.9233 742.169 -76.9722 739.389C-75.0211 736.609 -73.9736 733.295 -73.9721 729.899C-73.9721 725.932 -75.4268 721.964 -78.0719 719.054C-92.5814 702.732 -100.583 681.644 -100.555 659.805C-100.555 628.064 -83.362 598.307 -55.8534 582.437C-36.9983 571.503 -14.7826 567.879 6.56998 572.254C8.70621 572.644 10.8985 572.611 13.0216 572.154C15.1448 571.698 17.1573 570.827 18.9441 569.593C20.731 568.359 22.2572 566.785 23.4358 564.961C24.6143 563.137 25.422 561.098 25.8128 558.962C26.2036 556.826 26.1697 554.634 25.7133 552.511C25.2568 550.387 24.3866 548.375 23.1524 546.588C21.9182 544.801 20.3441 543.275 18.52 542.096C16.6959 540.918 14.6576 540.11 12.5213 539.719C5.50888 538.293 -1.61705 537.496 -8.77138 537.339ZM1443.5 544.877C1415.88 576.757 1400.63 617.494 1400.52 659.673C1400.43 701.967 1415.71 742.852 1443.5 774.733V712.045C1430.26 678.522 1430.26 641.22 1443.5 607.697V544.745V544.877ZM1232.03 572.915C1226.87 572.915 1222.24 575.428 1219.2 579.131C1199.57 601.421 1188.76 630.107 1188.78 659.805C1188.85 681.271 1194.55 702.343 1205.29 720.927C1216.03 739.511 1231.45 754.961 1250.01 765.74C1275.7 780.632 1305.94 785.618 1335.05 779.758C1337.19 779.368 1339.23 778.56 1341.05 777.381C1342.87 776.203 1344.45 774.677 1345.68 772.89C1346.92 771.103 1347.79 769.091 1348.24 766.967C1348.7 764.844 1348.73 762.652 1348.34 760.516C1347.95 758.38 1347.14 756.341 1345.97 754.517C1344.79 752.693 1343.26 751.119 1341.47 749.885C1339.69 748.65 1337.67 747.78 1335.55 747.324C1333.43 746.867 1331.24 746.833 1329.1 747.224C1307.72 751.673 1285.45 748.095 1266.54 737.173C1252.98 729.283 1241.73 717.973 1233.91 704.374C1226.09 690.774 1221.97 675.361 1221.97 659.673C1221.97 637.058 1230.44 616.294 1244.46 600.556C1246.58 598.169 1247.96 595.219 1248.44 592.063C1248.92 588.907 1248.48 585.68 1247.16 582.771C1245.85 579.862 1243.72 577.395 1241.03 575.67C1238.35 573.944 1235.22 573.034 1232.03 573.047V572.915ZM597.079 573.047C593.887 573.034 590.759 573.944 588.073 575.67C585.387 577.395 583.259 579.862 581.944 582.771C580.629 585.68 580.185 588.907 580.665 592.063C581.145 595.219 582.528 598.169 584.648 600.556C599.157 616.878 607.159 637.966 607.13 659.805C607.13 691.546 589.938 721.303 562.561 737.173C543.669 748.14 521.4 751.765 500.006 747.357C497.869 746.966 495.677 747 493.554 747.456C491.431 747.913 489.418 748.783 487.632 750.017C485.845 751.251 484.318 752.825 483.14 754.649C481.961 756.473 481.154 758.512 480.763 760.648C480.372 762.784 480.406 764.976 480.862 767.1C481.319 769.223 482.189 771.235 483.423 773.022C484.657 774.809 486.232 776.335 488.056 777.514C489.88 778.692 491.918 779.5 494.054 779.891C522.092 785.445 552.246 781.213 579.093 765.872C597.626 755.049 613.005 739.564 623.7 720.957C634.396 702.349 640.037 681.267 640.062 659.805C640.062 628.858 628.556 600.688 609.643 579.131C608.091 577.228 606.135 575.694 603.915 574.642C601.696 573.589 599.271 573.045 596.815 573.047H597.079ZM781.175 590.24C779.324 590.24 777.604 590.372 775.885 590.637C773.675 590.756 771.511 591.317 769.522 592.288C767.533 593.258 765.759 594.618 764.305 596.288C762.852 597.957 761.748 599.901 761.06 602.004C760.372 604.108 760.113 606.328 760.299 608.534C760.485 610.739 761.112 612.885 762.143 614.844C763.174 616.802 764.587 618.534 766.3 619.936C768.012 621.338 769.989 622.382 772.113 623.006C774.236 623.63 776.464 623.821 778.663 623.568C785.62 622.929 792.615 624.301 798.816 627.52C805.017 630.74 810.164 635.671 813.645 641.729C817.127 647.786 818.797 654.716 818.456 661.695C818.116 668.673 815.78 675.408 811.726 681.098C810.493 682.887 809.624 684.901 809.169 687.026C808.715 689.15 808.683 691.343 809.076 693.48C809.469 695.617 810.279 697.656 811.46 699.479C812.641 701.303 814.169 702.877 815.958 704.11C817.747 705.343 819.761 706.212 821.886 706.666C824.01 707.121 826.204 707.153 828.34 706.76C830.477 706.367 832.516 705.557 834.34 704.376C836.163 703.195 837.737 701.667 838.97 699.878C847.304 688.176 851.787 674.171 851.798 659.805C851.798 635.074 838.441 611.93 817.016 599.63C806.096 593.316 793.655 590.114 781.043 590.372L781.175 590.24ZM-9.82941 590.372C-22.1289 590.108 -34.5607 593.15 -45.8022 599.63C-56.3828 605.723 -65.1771 614.489 -71.3046 625.05C-77.4322 635.61 -80.6779 647.596 -80.717 659.805C-80.7334 674.216 -76.2484 688.272 -67.8884 700.01C-66.6466 701.799 -65.0647 703.326 -63.2328 704.503C-61.401 705.681 -59.3552 706.486 -57.2122 706.873C-55.0692 707.259 -52.8709 707.22 -50.743 706.758C-48.6151 706.295 -46.5992 705.418 -44.8103 704.176C-43.0214 702.934 -41.4947 701.352 -40.3172 699.52C-39.1397 697.688 -38.3345 695.643 -37.9477 693.5C-37.5608 691.357 -37.5999 689.158 -38.0626 687.031C-38.5253 684.903 -39.4025 682.887 -40.6443 681.098C-44.6986 675.408 -47.0346 668.673 -47.3749 661.695C-47.7151 654.716 -46.0454 647.786 -42.564 641.729C-39.0825 635.671 -33.9356 630.74 -27.7345 627.52C-21.5335 624.301 -14.5388 622.929 -7.5811 623.568C-5.40034 623.795 -3.19626 623.585 -1.09715 622.952C1.00195 622.319 2.95413 621.275 4.64577 619.88C6.33739 618.485 7.73466 616.768 8.75624 614.828C9.77783 612.888 10.4033 610.764 10.5963 608.58C10.7892 606.396 10.5458 604.195 9.88022 602.106C9.21461 600.017 8.14011 598.081 6.71925 596.411C5.2984 594.742 3.55957 593.371 1.604 592.38C-0.351562 591.388 -2.4848 590.796 -4.67152 590.637C-6.43192 590.497 -8.19604 590.408 -9.96164 590.372H-9.82941ZM1268.4 612.326C1262.71 612.326 1257.81 615.104 1254.64 619.6C1246.33 631.354 1241.89 645.409 1241.94 659.805C1241.97 671.986 1245.18 683.949 1251.26 694.505C1257.34 705.061 1266.07 713.844 1276.59 719.98C1289.07 727.215 1303.5 730.359 1317.86 728.973C1320.03 728.782 1322.14 728.166 1324.07 727.158C1326.01 726.151 1327.72 724.773 1329.12 723.103C1330.52 721.432 1331.58 719.503 1332.23 717.424C1332.89 715.345 1333.13 713.158 1332.93 710.987C1332.74 708.816 1332.13 706.704 1331.12 704.771C1330.11 702.839 1328.73 701.123 1327.06 699.723C1325.39 698.323 1323.46 697.266 1321.39 696.612C1319.31 695.958 1317.12 695.719 1314.95 695.91C1308.01 696.527 1301.04 695.148 1294.87 691.934C1288.69 688.72 1283.56 683.806 1280.08 677.772C1276.61 671.738 1274.93 664.835 1275.25 657.879C1275.57 650.923 1277.87 644.203 1281.89 638.512C1283.67 636.038 1284.73 633.12 1284.95 630.08C1285.18 627.04 1284.56 623.997 1283.16 621.287C1281.77 618.577 1279.65 616.306 1277.04 614.725C1274.44 613.143 1271.44 612.313 1268.4 612.326ZM560.842 612.326C557.794 612.313 554.801 613.143 552.195 614.725C549.589 616.306 547.471 618.577 546.076 621.287C544.68 623.997 544.06 627.04 544.285 630.08C544.511 633.12 545.572 636.038 547.352 638.512C551.406 644.203 553.742 650.937 554.083 657.916C554.423 664.894 552.753 671.824 549.272 677.882C545.79 683.939 540.643 688.871 534.442 692.09C528.241 695.309 521.247 696.681 514.289 696.042C512.118 695.851 509.931 696.09 507.852 696.744C505.773 697.398 503.843 698.456 502.173 699.856C500.503 701.256 499.125 702.971 498.118 704.904C497.11 706.836 496.494 708.948 496.303 711.119C496.112 713.29 496.35 715.477 497.004 717.556C497.659 719.635 498.716 721.565 500.116 723.235C501.516 724.905 503.231 726.283 505.164 727.29C507.096 728.298 509.208 728.915 511.379 729.106C525.266 730.428 539.682 727.519 552.642 719.848C563.13 713.716 571.832 704.949 577.887 694.417C583.942 683.885 587.139 671.954 587.16 659.805C587.16 644.861 582.399 630.974 574.332 619.6C572.825 617.371 570.796 615.543 568.422 614.275C566.048 613.007 563.401 612.338 560.71 612.326H560.842ZM-11.2842 643.273C-15.6686 643.273 -19.8735 645.015 -22.9738 648.115C-26.0741 651.216 -27.8158 655.421 -27.8158 659.805C-27.8158 664.19 -26.0741 668.394 -22.9738 671.495C-19.8735 674.595 -15.6686 676.337 -11.2842 676.337C-6.89972 676.337 -2.69484 674.595 0.405441 671.495C3.50572 668.394 5.24744 664.19 5.24744 659.805C5.24744 655.421 3.50572 651.216 0.405441 648.115C-2.69484 645.015 -6.89972 643.273 -11.2842 643.273ZM1311.25 643.273C1306.86 643.273 1302.66 645.015 1299.56 648.115C1296.46 651.216 1294.71 655.421 1294.71 659.805C1294.71 664.19 1296.46 668.394 1299.56 671.495C1302.66 674.595 1306.86 676.337 1311.25 676.337C1315.63 676.337 1319.83 674.595 1322.93 671.495C1326.04 668.394 1327.78 664.19 1327.78 659.805C1327.78 655.421 1326.04 651.216 1322.93 648.115C1319.83 645.015 1315.63 643.273 1311.25 643.273ZM518.918 643.273C514.533 642.958 510.203 644.397 506.88 647.274C503.556 650.151 501.512 654.23 501.196 658.615C500.88 662.999 502.319 667.33 505.196 670.653C508.073 673.977 512.153 676.021 516.537 676.337C518.708 676.493 520.889 676.22 522.954 675.534C525.02 674.847 526.93 673.761 528.576 672.336C530.221 670.912 531.57 669.177 532.545 667.231C533.52 665.285 534.103 663.166 534.259 660.995C534.415 658.824 534.143 656.644 533.456 654.578C532.77 652.513 531.683 650.603 530.259 648.957C528.834 647.311 527.099 645.963 525.154 644.987C523.208 644.012 521.089 643.43 518.918 643.273ZM781.043 643.273C778.872 643.43 776.753 644.012 774.807 644.987C772.862 645.963 771.127 647.311 769.702 648.957C768.278 650.603 767.191 652.513 766.505 654.578C765.818 656.644 765.545 658.824 765.702 660.995C765.858 663.166 766.44 665.285 767.416 667.231C768.391 669.177 769.74 670.912 771.385 672.336C773.031 673.761 774.941 674.847 777.007 675.534C779.072 676.22 781.253 676.493 783.424 676.337C787.808 676.021 791.888 673.977 794.765 670.653C797.642 667.33 799.081 662.999 798.765 658.615C798.449 654.23 796.405 650.151 793.081 647.274C789.758 644.397 785.428 642.958 781.043 643.273ZM121.101 660.863C65.1223 660.752 11.0613 681.25 -30.7711 718.448C-72.6035 755.646 -99.28 806.941 -105.713 862.549C-106.238 865.646 -105.87 868.828 -104.652 871.723C-103.434 874.618 -101.416 877.107 -98.8352 878.897C-96.2541 880.687 -93.2166 881.705 -90.0781 881.831C-86.9396 881.957 -83.8302 881.187 -81.1137 879.609C-78.8776 878.295 -76.9822 876.473 -75.5808 874.29C-74.1793 872.107 -73.3111 869.626 -73.0463 867.045C-69.6215 836.693 -59.1119 807.569 -42.365 782.024C-25.6181 756.479 -3.10252 735.226 23.3661 719.98C53.0427 702.923 86.6735 693.947 120.903 693.947C155.132 693.947 188.763 702.923 218.439 719.98C244.9 735.254 267.4 756.534 284.124 782.103C300.848 807.672 311.329 836.814 314.719 867.178C314.89 869.433 315.521 871.629 316.575 873.631C317.628 875.632 319.081 877.396 320.844 878.814C322.607 880.231 324.641 881.272 326.822 881.871C329.003 882.471 331.284 882.617 333.523 882.299C335.763 881.982 337.913 881.208 339.842 880.027C341.77 878.845 343.436 877.28 344.735 875.428C346.034 873.577 346.94 871.479 347.396 869.263C347.852 867.048 347.849 864.763 347.386 862.549C340.961 807.009 314.341 755.769 272.592 718.581C230.843 681.392 176.879 660.85 120.969 660.863H121.101ZM-143.537 712.045V774.733C-139.38 779.553 -134.965 784.144 -130.312 788.487C-128.007 790.824 -125.059 792.422 -121.843 793.078C-118.628 793.733 -115.289 793.417 -112.254 792.168C-109.219 790.92 -106.624 788.797 -104.799 786.069C-102.975 783.34 -102.004 780.131 -102.01 776.849C-102.01 771.956 -104.126 767.591 -107.3 764.682C-123.206 750.104 -135.597 732.107 -143.537 712.045H-143.537ZM120.969 713.764C81.2317 713.691 42.6552 727.157 11.5952 751.942C-19.4648 776.728 -41.1551 811.355 -49.902 850.117C-50.9543 854.379 -50.2705 858.884 -48.0011 862.641C-45.7317 866.399 -42.0626 869.101 -37.8009 870.153C-33.5392 871.206 -29.034 870.522 -25.2765 868.253C-21.519 865.983 -18.8168 862.314 -17.7646 858.052C-13.5079 838.806 -5.28845 820.658 6.36993 804.764C18.0283 788.871 32.87 775.58 49.9489 765.74C71.5749 753.3 96.0865 746.753 121.035 746.753C145.983 746.753 170.495 753.3 192.121 765.74C209.19 775.608 224.014 788.926 235.65 804.843C247.286 820.759 255.477 838.926 259.702 858.185C260.439 861.422 262.133 864.362 264.565 866.623C266.996 868.884 270.052 870.36 273.335 870.86C276.617 871.359 279.974 870.859 282.968 869.424C285.961 867.988 288.454 865.685 290.12 862.813C292.501 858.846 292.898 854.349 291.84 850.249C283.119 811.462 261.44 776.806 230.377 751.994C199.315 727.183 160.724 713.698 120.969 713.764ZM120.969 766.665C95.4025 766.597 70.4614 774.566 49.6717 789.447C28.8819 804.327 13.2952 825.366 5.11519 849.588C3.642 853.727 3.87335 858.282 5.75833 862.25C7.6433 866.218 11.0275 869.275 15.1664 870.748C19.3053 872.222 23.86 871.99 27.8283 870.105C31.7967 868.22 34.8537 864.836 36.3269 860.697C43.215 839.981 57.4766 822.519 76.3995 811.631C89.9791 803.822 105.37 799.712 121.035 799.712C136.7 799.712 152.091 803.822 165.67 811.631C184.543 822.543 198.755 840.003 205.611 860.697C206.614 863.725 208.473 866.398 210.961 868.393C213.45 870.388 216.462 871.621 219.636 871.943C222.81 872.264 226.008 871.661 228.847 870.205C231.685 868.75 234.041 866.504 235.632 863.739C238.277 859.242 238.542 854.085 236.822 849.588C228.642 825.366 213.056 804.327 192.266 789.447C171.476 774.566 146.535 766.597 120.969 766.665ZM-143.537 803.299V845.356C-139.82 846.94 -135.65 847.109 -131.818 845.828C-127.985 844.548 -124.753 841.908 -122.734 838.407C-120.715 834.907 -120.049 830.788 -120.86 826.829C-121.671 822.87 -123.905 819.346 -127.138 816.922C-132.852 812.641 -138.327 808.049 -143.537 803.167L-143.537 803.299ZM120.969 819.567C107.684 819.57 94.6788 823.385 83.4969 830.558C72.315 837.731 63.4258 847.962 57.8841 860.036C56.8196 862.015 56.1699 864.191 55.9746 866.43C55.7793 868.668 56.0425 870.924 56.7482 873.057C57.4538 875.191 58.5871 877.158 60.0787 878.839C61.5704 880.52 63.3891 881.879 65.4237 882.833C67.4583 883.788 69.6662 884.317 71.9123 884.389C74.1585 884.462 76.3958 884.075 78.4875 883.254C80.5793 882.432 82.4816 881.192 84.0781 879.611C85.6747 878.029 86.932 876.139 87.7733 874.055C90.6821 867.694 95.3572 862.303 101.242 858.523C107.127 854.743 113.974 852.733 120.969 852.733C127.963 852.733 134.81 854.743 140.695 858.523C146.58 862.303 151.255 867.694 154.164 874.055C155.006 876.139 156.263 878.029 157.859 879.611C159.456 881.192 161.358 882.432 163.45 883.254C165.542 884.075 167.779 884.462 170.025 884.389C172.271 884.317 174.479 883.788 176.514 882.833C178.548 881.879 180.367 880.52 181.859 878.839C183.35 877.158 184.484 875.191 185.189 873.057C185.895 870.924 186.158 868.668 185.963 866.43C185.768 864.191 185.118 862.015 184.053 860.036C178.538 847.942 169.655 837.693 158.468 830.516C147.28 823.339 134.261 819.538 120.969 819.567ZM119.778 872.468C115.604 872.769 111.698 874.643 108.851 877.711C106.004 880.779 104.426 884.814 104.437 888.999H137.5C137.506 886.725 137.043 884.473 136.138 882.385C135.234 880.298 133.909 878.42 132.245 876.868C130.582 875.316 128.616 874.125 126.471 873.367C124.326 872.61 122.047 872.304 119.778 872.468ZM1180.18 872.468C1177.91 872.284 1175.62 872.576 1173.47 873.326C1171.31 874.075 1169.34 875.266 1167.67 876.822C1166 878.378 1164.68 880.264 1163.78 882.361C1162.89 884.458 1162.43 886.719 1162.46 888.999H1195.52C1195.57 884.805 1194 880.753 1191.15 877.678C1188.29 874.603 1184.37 872.738 1180.18 872.468Z" fill="white"/>
</g>
</g>
<defs>
<clipPath id="clip0_141_5853">
<rect width="1240" height="861.222" fill="white"/>
</clipPath>
</defs>
</svg>
