<svg width="26" height="26" viewBox="0 0 26 26" fill="none" xmlns="http://www.w3.org/2000/svg">
<path d="M13.5151 1.69231H12.4356C11.5397 1.69231 10.8164 2.41385 10.8164 3.30769V4.38461C10.8164 5.27846 11.5397 6 12.4356 6H13.5151C14.4111 6 15.1343 5.27846 15.1343 4.38461V3.30769C15.1343 2.41385 14.4111 1.69231 13.5151 1.69231Z" fill="#003DA5"/>
<path d="M4.60887 11.5677H3.52938C2.63341 11.5677 1.91016 12.2892 1.91016 13.1831V14.26C1.91016 15.1538 2.63341 15.8754 3.52938 15.8754H4.60887C5.50484 15.8754 6.22809 15.1538 6.22809 14.26V13.1831C6.22809 12.2892 5.49404 11.5677 4.60887 11.5677Z" fill="#003DA5"/>
<path d="M22.3784 11.5677H21.2989C20.4029 11.5677 19.6797 12.2892 19.6797 13.1831V14.26C19.6797 15.1538 20.4029 15.8754 21.2989 15.8754H22.3784C23.2744 15.8754 23.9976 15.1538 23.9976 14.26V13.1831C23.9976 12.2892 23.2744 11.5677 22.3784 11.5677Z" fill="#003DA5"/>
<path d="M4.04985 12.9139C3.60726 12.9139 3.24023 12.5477 3.24023 12.1062C3.24023 7.5077 6.69459 3.64157 11.2716 3.1031C11.7034 3.06003 12.1136 3.37231 12.1676 3.81384C12.2215 4.25538 11.8977 4.65386 11.4551 4.70771C7.6985 5.14925 4.85946 8.32617 4.85946 12.1062C4.85946 12.5477 4.49244 12.9139 4.04985 12.9139Z" fill="#003DA5"/>
<path d="M21.8608 12.9138C21.4182 12.9138 21.0512 12.5477 21.0512 12.1061C21.0512 8.34767 18.2337 5.17076 14.4987 4.71845C14.0561 4.66461 13.7431 4.26613 13.7971 3.82459C13.851 3.38305 14.2612 3.07078 14.7038 3.12463C19.2485 3.67386 22.6812 7.53999 22.6812 12.1169C22.6704 12.5477 22.3142 12.9138 21.8608 12.9138Z" fill="#003DA5"/>
<path d="M14.3462 23.78H11.5719C10.5788 23.78 9.84471 22.983 10.0282 22.1215L10.4816 20.1292H15.4364L15.8898 22.1215C16.0949 23.0369 15.4041 23.78 14.3462 23.78Z" fill="#003DA5"/>
<path opacity="0.4" d="M17.3466 18.4384L15.4359 20.1292H10.4811L8.57036 18.4384C7.45849 17.5338 7.45849 16.8338 8.30049 15.7677L11.6685 11.5246C11.906 11.2338 12.1758 11.0292 12.4673 10.9323C12.7803 10.8246 13.1258 10.8246 13.4388 10.9323C13.7303 11.04 14.0002 11.2338 14.2376 11.5246L17.6056 15.7677C18.4476 16.8338 18.4153 17.5015 17.3466 18.4384Z" fill="#003DA5"/>
</svg>
