<svg width="19" height="19" viewBox="0 0 19 19" fill="none" xmlns="http://www.w3.org/2000/svg">
<path d="M11.3675 14.7874C11.2225 14.7874 11.0774 14.734 10.9629 14.6194C10.7415 14.398 10.7415 14.0316 10.9629 13.8102L15.1924 9.58073L10.9629 5.35127C10.7415 5.12987 10.7415 4.76342 10.9629 4.54202C11.1843 4.32063 11.5508 4.32063 11.7722 4.54202L16.4063 9.17611C16.6277 9.39751 16.6277 9.76396 16.4063 9.98536L11.7722 14.6194C11.6577 14.734 11.5126 14.7874 11.3675 14.7874Z" fill="#292D32"/>
<path d="M15.8725 10.1533H3.02375C2.71074 10.1533 2.45117 9.89377 2.45117 9.58076C2.45117 9.26775 2.71074 9.00818 3.02375 9.00818H15.8725C16.1855 9.00818 16.445 9.26775 16.445 9.58076C16.445 9.89377 16.1855 10.1533 15.8725 10.1533Z" fill="#292D32"/>
</svg>
