<svg width="32" height="33" viewBox="0 0 32 33" fill="none" xmlns="http://www.w3.org/2000/svg">
<path d="M19.2408 25.8103C18.9875 25.8103 18.7341 25.7143 18.5341 25.5086C18.1475 25.1108 18.1475 24.4526 18.5341 24.0549L25.9208 16.4571L18.5341 8.85942C18.1475 8.46171 18.1475 7.80342 18.5341 7.40571C18.9208 7.00799 19.5608 7.00799 19.9475 7.40571L28.0408 15.7303C28.4275 16.128 28.4275 16.7863 28.0408 17.184L19.9475 25.5086C19.7475 25.7143 19.4941 25.8103 19.2408 25.8103Z" fill="white"/>
<path d="M27.106 17.4857H4.66602C4.11935 17.4857 3.66602 17.0194 3.66602 16.4571C3.66602 15.8948 4.11935 15.4286 4.66602 15.4286H27.106C27.6527 15.4286 28.106 15.8948 28.106 16.4571C28.106 17.0194 27.6527 17.4857 27.106 17.4857Z" fill="white"/>
</svg>
