<svg width="16" height="16" viewBox="0 0 16 16" fill="none" xmlns="http://www.w3.org/2000/svg">
<path d="M14.8533 0H7.49333C6.86857 0 6.35047 0.518095 6.35047 1.14286C6.35047 1.76762 6.86857 2.28571 7.49333 2.28571H12.0952L0.331428 14.0495C-0.110476 14.4914 -0.110476 15.2229 0.331428 15.6648C0.559999 15.8933 0.849523 16 1.13905 16C1.42857 16 1.71809 15.8933 1.94666 15.6648L13.7105 3.90095V8.50286C13.7105 9.12762 14.2286 9.64571 14.8533 9.64571C15.4781 9.64571 15.9962 9.12762 15.9962 8.50286V1.14286C15.9962 0.518095 15.4781 0 14.8533 0Z" fill="black"/>
</svg>
