<svg width="24" height="25" viewBox="0 0 24 25" fill="none" xmlns="http://www.w3.org/2000/svg">
<path opacity="0.58" d="M24 0.354492H0V24.3545H24V0.354492Z" fill="white"/>
<path opacity="0.4" d="M6.9403 20.9845C8.4303 21.8545 10.1603 22.3545 12.0003 22.3545C17.6303 22.3545 22.3103 17.3845 21.9803 11.7645C21.6403 5.96446 16.3703 1.49445 10.3003 2.49445C6.12029 3.18445 2.77029 6.57446 2.12029 10.7545C1.74029 13.1745 2.24031 15.4645 3.33031 17.3545L2.4403 20.6645C2.2403 21.4145 2.93028 22.0945 3.67028 21.8845L6.9403 20.9845Z" fill="black"/>
<path d="M17 15.5245C17 15.7045 16.96 15.8945 16.87 16.0745C16.78 16.2545 16.67 16.4245 16.53 16.5845C16.28 16.8545 16.01 17.0545 15.71 17.1745C15.41 17.3045 15.08 17.3645 14.73 17.3645C14.22 17.3645 13.67 17.2445 13.1 16.9945C12.52 16.7445 11.95 16.4145 11.38 16.0045C10.8 15.5845 10.26 15.1145 9.73999 14.6045C9.21999 14.0845 8.76003 13.5345 8.34003 12.9645C7.93003 12.3945 7.59999 11.8245 7.35999 11.2545C7.11999 10.6845 7 10.1345 7 9.61447C7 9.27447 7.05999 8.94447 7.17999 8.64447C7.29999 8.33447 7.49001 8.05447 7.76001 7.80447C8.08001 7.48447 8.42999 7.33447 8.79999 7.33447C8.93999 7.33447 9.08002 7.36447 9.21002 7.42447C9.34002 7.48447 9.45999 7.57447 9.54999 7.70447L10.7 9.35447C10.79 9.48447 10.86 9.59447 10.9 9.70447C10.95 9.81447 10.97 9.91447 10.97 10.0145C10.97 10.1345 10.93 10.2545 10.86 10.3745C10.79 10.4945 10.7 10.6145 10.58 10.7345L10.2 11.1345C10.14 11.1945 10.12 11.2545 10.12 11.3345C10.12 11.3745 10.13 11.4145 10.14 11.4545C10.16 11.4945 10.17 11.5245 10.18 11.5545C10.27 11.7245 10.43 11.9345 10.65 12.1945C10.88 12.4545 11.12 12.7245 11.38 12.9845C11.65 13.2545 11.91 13.4945 12.18 13.7245C12.44 13.9445 12.66 14.0945 12.83 14.1845C12.86 14.1945 12.89 14.2145 12.92 14.2245C12.96 14.2445 13 14.2445 13.05 14.2445C13.14 14.2445 13.2 14.2145 13.26 14.1545L13.64 13.7745C13.77 13.6445 13.89 13.5545 14 13.4945C14.12 13.4245 14.23 13.3845 14.36 13.3845C14.46 13.3845 14.56 13.4045 14.67 13.4545C14.78 13.5045 14.9 13.5645 15.02 13.6545L16.68 14.8345C16.81 14.9245 16.9 15.0345 16.96 15.1545C16.97 15.2645 17 15.3845 17 15.5245Z" fill="black"/>
</svg>
